<svg aria-hidden="true" style="position:absolute;width:0;height:0;overflow:hidden" xmlns="http://www.w3.org/2000/svg">
  <defs>
    <symbol id="Rectangle28" viewBox="0 0 32 32">
      <path fill="none" opacity=".4" stroke="#feae00" style="stroke:var(--color1, #feae00)" stroke-width=".282" d="M16 .141c6.112 0 11.066 4.954 11.066 11.066v9.586c0 6.112-4.954 11.066-11.066 11.066S4.934 26.905 4.934 20.793v-9.586C4.934 5.095 9.888.141 16 .141z"/>
    </symbol>
    <symbol id="Rectangle30" viewBox="0 0 32 32">
      <path fill="none" stroke="#feae00" style="stroke:var(--color1, #feae00)" stroke-width=".339" d="M15.983.169c6.069 0 10.989 4.92 10.989 10.989v9.659c0 6.069-4.92 10.989-10.989 10.989-6.069 0-10.989-4.92-10.989-10.989v-9.659C4.994 5.089 9.914.169 15.983.169z"/>
    </symbol>
    <symbol id="Rectangle29" viewBox="0 0 32 32">
      <path fill="none" stroke="#feae00" style="stroke:var(--color1, #feae00)" stroke-width=".339" d="M15.983.169c6.069 0 10.989 4.92 10.989 10.989v9.659c0 6.069-4.92 10.989-10.989 10.989-6.069 0-10.989-4.92-10.989-10.989v-9.659C4.994 5.089 9.914.169 15.983.169z"/>
    </symbol>
    <symbol id="checkbox-selected" viewBox="0 0 32 32">
      <path d="M6.667 28c-.733 0-1.361-.261-1.883-.783s-.783-1.15-.783-1.883V6.667c0-.733.261-1.361.783-1.883s1.15-.783 1.883-.783h18.667a2.408 2.408 0 0 1 .967.2l-2.467 2.467H6.667v18.667h18.667v-8.867l2.667-2.667v11.533c0 .733-.261 1.361-.783 1.883s-1.15.783-1.883.783H6.668zm8.7-5.333-7.533-7.533 1.867-1.867 5.667 5.667L27.601 6.701l1.9 1.833-14.133 14.133z"/>
    </symbol>
    <symbol id="checkbox-empty" viewBox="0 0 32 32">
      <path d="M6.667 28c-.733 0-1.361-.261-1.883-.783s-.783-1.15-.783-1.883V6.667c0-.733.261-1.361.783-1.883s1.15-.783 1.883-.783h18.667c.733 0 1.361.261 1.883.783S28 5.934 28 6.667v18.667c0 .733-.261 1.361-.783 1.883s-1.15.783-1.883.783H6.667zm0-2.667h18.667V6.666H6.667v18.667z"/>
    </symbol>
    <symbol id="star-rate-filled" viewBox="0 0 32 32">
      <path fill="#feae00" style="fill:var(--color1, #feae00)" d="m7.767 29.333 2.167-9.367-7.267-6.3 9.6-.833L16 4l3.733 8.833 9.6.833-7.267 6.3 2.167 9.367L16 24.366l-8.233 4.967z"/>
    </symbol>
    <symbol id="star-rate-empty" viewBox="0 0 32 32">
      <path fill="#feae00" style="fill:var(--color1, #feae00)" d="m11.8 23.767 4.2-2.533 4.2 2.567-1.1-4.8 3.7-3.2-4.867-.433L16 10.835l-1.933 4.5-4.867.433 3.7 3.233-1.1 4.767zm-4.033 5.566 2.167-9.367-7.267-6.3 9.6-.833L16 4l3.733 8.833 9.6.833-7.267 6.3 2.167 9.367L16 24.366l-8.233 4.967z"/>
    </symbol>
   
    <symbol id="arrow-right" viewBox="0 0 32 32">
      <path fill="#feae00" style="fill:var(--color1, #feae00)" d="m10.7 29.333-2.367-2.367L19.3 15.999 8.333 5.032 10.7 2.665l13.333 13.333L10.7 29.331z"/>
    </symbol>
    <symbol id="arrow-left" viewBox="0 0 32 32">
      <path fill="#feae00" style="fill:var(--color1, #feae00)" d="m21.3 29.333 2.367-2.367L12.7 15.999 23.667 5.032 21.3 2.665 7.967 15.998 21.3 29.331z"/>
    </symbol>
    <symbol id="return-up-sticky" viewBox="0 0 32 32">
      <path fill="#00aae1" style="fill:var(--color3, #00aae1)" d="M16 3.088c6.511 0 11.789 5.278 11.789 11.789S22.511 26.666 16 26.666 4.211 21.388 4.211 14.877 9.489 3.088 16 3.088z"/>
      <path fill="#fff" style="fill:var(--color2, #fff)" d="m11.613 18.95-1.4-1.46 6.002-6.257 6.002 6.257-1.4 1.46-4.601-4.771-4.601 4.771z"/>
    </symbol>
    <symbol id="location" viewBox="0 0 32 32">
      <path fill="#fff" style="fill:var(--color2, #fff)" d="M16 16c.9 0 1.67-.313 2.311-.94s.961-1.38.961-2.26-.32-1.633-.961-2.26C17.67 9.913 16.899 9.6 16 9.6s-1.67.313-2.311.94-.961 1.38-.961 2.26c0 .88.32 1.633.961 2.26S15.1 16 16 16zm0 11.76c3.327-2.987 5.796-5.7 7.404-8.14s2.414-4.607 2.414-6.5c0-2.907-.948-5.287-2.843-7.14S18.755 3.2 16 3.2s-5.08.927-6.975 2.78-2.843 4.233-2.843 7.14c0 1.893.805 4.06 2.414 6.5s4.077 5.153 7.405 8.14zM16 32c-4.391-3.653-7.67-7.047-9.839-10.18s-3.252-6.033-3.252-8.7c0-4 1.316-7.187 3.948-9.56S12.537 0 16 0c3.464 0 6.511 1.187 9.143 3.56s3.948 5.56 3.948 9.56c0 2.667-1.084 5.567-3.252 8.7S20.391 28.347 16 32z"/>
    </symbol>
    <symbol id="schedule" viewBox="0 0 32 32">
      <path fill="#fff" style="fill:var(--color2, #fff)" d="m20.4 22.267 1.867-1.867-4.933-4.933V9.334h-2.667v7.2l5.733 5.733zM16 29.333c-1.844 0-3.578-.35-5.2-1.05s-3.033-1.65-4.233-2.85-2.15-2.611-2.85-4.233c-.7-1.622-1.05-3.355-1.05-5.2s.35-3.578 1.05-5.2 1.65-3.033 2.85-4.233c1.2-1.2 2.611-2.15 4.233-2.85s3.356-1.05 5.2-1.05c1.845 0 3.578.35 5.2 1.05s3.033 1.65 4.233 2.85c1.2 1.2 2.15 2.611 2.85 4.233s1.05 3.356 1.05 5.2c0 1.845-.35 3.578-1.05 5.2s-1.65 3.033-2.85 4.233-2.611 2.15-4.233 2.85c-1.622.7-3.355 1.05-5.2 1.05zm0-2.666c2.956 0 5.472-1.039 7.55-3.117s3.117-4.594 3.117-7.55c0-2.956-1.039-5.472-3.117-7.55S18.956 5.333 16 5.333c-2.956 0-5.472 1.039-7.55 3.117S5.333 13.044 5.333 16c0 2.956 1.039 5.472 3.117 7.55s4.594 3.117 7.55 3.117z"/>
    </symbol>
    <!-- <symbol id="login" viewBox="0 0 32 32">
      <path d="M16 23.6v-1.778h6.222V9.378H16V7.6h6.222c.489 0 .907.174 1.256.522S24 8.889 24 9.378v12.444c0 .489-.174.907-.522 1.256s-.767.522-1.256.522H16zm-1.778-3.556L13 18.755l2.267-2.267H8V14.71h7.267L13 12.443l1.222-1.289 4.444 4.444-4.444 4.444z"/>
    </symbol> -->
    <symbol id="language" viewBox="0 0 32 32">
      <path fill="#fff" style="fill:var(--color2, #fff)" d="M16 23.6c-1.093 0-2.127-.21-3.1-.63s-1.823-.993-2.55-1.72c-.727-.727-1.3-1.577-1.72-2.55S8 16.693 8 15.6c0-1.107.21-2.143.63-3.11s.993-1.813 1.72-2.54c.727-.727 1.577-1.3 2.55-1.72s2.007-.63 3.1-.63c1.107 0 2.143.21 3.11.63s1.813.993 2.54 1.72c.727.727 1.3 1.573 1.72 2.54s.63 2.003.63 3.11c0 1.093-.21 2.127-.63 3.1s-.993 1.823-1.72 2.55c-.727.727-1.573 1.3-2.54 1.72s-2.003.63-3.11.63zm0-1.64c.347-.48.647-.98.9-1.5s.46-1.073.62-1.66h-3.04c.16.587.367 1.14.62 1.66s.553 1.02.9 1.5zm-2.08-.32c-.24-.44-.45-.897-.63-1.37s-.33-.963-.45-1.47h-2.36c.387.667.87 1.247 1.45 1.74s1.243.86 1.99 1.1zm4.16 0c.747-.24 1.41-.607 1.99-1.1s1.063-1.073 1.45-1.74h-2.36c-.12.507-.27.997-.45 1.47s-.39.93-.63 1.37zM9.8 17.2h2.72a10.567 10.567 0 0 1-.09-2.41c.02-.26.05-.523.09-.79H9.8a6.43 6.43 0 0 0-.15 2.41c.033.26.083.523.15.79zm4.32 0h3.76a10.567 10.567 0 0 0 .09-2.41c-.02-.26-.05-.523-.09-.79h-3.76a10.567 10.567 0 0 0-.09 2.41c.02.26.05.523.09.79zm5.36 0h2.72a6.43 6.43 0 0 0 .15-2.41 6.72 6.72 0 0 0-.15-.79h-2.72a10.567 10.567 0 0 1 .09 2.41c-.02.26-.05.523-.09.79zm-.32-4.8h2.36c-.387-.667-.87-1.247-1.45-1.74s-1.243-.86-1.99-1.1c.24.44.45.897.63 1.37s.33.963.45 1.47zm-4.68 0h3.04c-.16-.587-.367-1.14-.62-1.66s-.553-1.02-.9-1.5c-.347.48-.647.98-.9 1.5s-.46 1.073-.62 1.66zm-4 0h2.36c.12-.507.27-.997.45-1.47s.39-.93.63-1.37c-.747.24-1.41.607-1.99 1.1s-1.063 1.073-1.45 1.74z"/>
    </symbol>
    <!-- <symbol id="contacts" viewBox="0 0 32 32">
      <path  d="M8.933 23.6c-.267 0-.489-.089-.667-.267s-.267-.4-.267-.667v-3.6c0-.193.067-.367.2-.522s.304-.263.511-.322l3.067-.622c.207-.03.419-.011.633.056s.389.167.522.3l2.089 2.089c.563-.326 1.096-.685 1.6-1.078s.985-.818 1.444-1.278c.489-.474.937-.967 1.344-1.478s.759-1.041 1.056-1.589l-2.156-2.178c-.119-.119-.2-.259-.244-.422s-.052-.363-.022-.6l.578-3.111c.03-.193.126-.359.289-.5s.348-.211.556-.211h3.6c.267 0 .489.089.667.267s.267.4.267.667c0 1.852-.404 3.681-1.211 5.489s-1.952 3.452-3.433 4.933c-1.481 1.482-3.126 2.626-4.933 3.433S10.786 23.6 8.934 23.6zm12.356-10.667c.252-.578.444-1.163.578-1.756s.237-1.193.311-1.8h-1.956l-.4 2.089 1.467 1.467zm-7.956 7.911-1.467-1.467-2.089.444v1.956c.607-.044 1.207-.148 1.8-.311s1.178-.37 1.756-.622z"/>
    </symbol> -->
    <symbol id="burger-menu-3" viewBox="0 0 32 32">
      <path d="M8 22v-2h16v2H8zm0-5v-2h16v2H8zm0-5v-2h16v2H8z"/>
    </symbol>
    <symbol id="cross1" viewBox="0 0 24 24">
			<path d="M25.333 6.667 6.666 25.334m.001-18.667 18.667 18.667" />
		</symbol>


    <symbol id="cross2" viewBox="0 0 32 32">
<path d="M31 5.285l-4.285-4.285-10.715 10.715-10.714-10.715-4.285 4.285 10.715 10.715-10.715 10.715 4.285 4.285 10.715-10.715 10.715 10.715 4.285-4.285-10.715-10.715 10.715-10.714z"></path>
</symbol>

<symbol id="cross" viewBox="0 0 32 32">
<path d="M19.705 15.646l11.601-11.6c0.432-0.447 0.671-1.046 0.665-1.667s-0.255-1.216-0.694-1.655c-0.44-0.439-1.034-0.689-1.656-0.694s-1.22 0.234-1.667 0.665l-11.601 11.6-11.6-11.6c-0.22-0.22-0.481-0.395-0.769-0.514s-0.596-0.181-0.907-0.181c-0.311 0-0.62 0.061-0.907 0.181s-0.549 0.294-0.769 0.514c-0.22 0.22-0.395 0.481-0.514 0.769s-0.181 0.596-0.181 0.907c0 0.311 0.061 0.62 0.181 0.907s0.294 0.549 0.514 0.769l11.6 11.6-11.626 11.627c-0.332 0.331-0.559 0.754-0.65 1.214s-0.045 0.937 0.135 1.37c0.18 0.433 0.484 0.804 0.874 1.064s0.849 0.399 1.318 0.398c0.607 0 1.214-0.231 1.676-0.694l11.626-11.627 11.6 11.6c0.22 0.22 0.481 0.395 0.769 0.514s0.596 0.18 0.907 0.18c0.469-0 0.927-0.139 1.316-0.399s0.693-0.631 0.873-1.064c0.179-0.433 0.226-0.909 0.135-1.369s-0.317-0.882-0.648-1.214l-11.602-11.6z"></path>
</symbol>

    <symbol id="eye-closed" viewBox="0 0 24 24" fill="none">
			<path d="M9.76406 5.29519C10.4664 5.10724 11.2123 5 12 5C18.3636 5 22 12 22 12C22 12 21.171 13.5958 19.612 15.2635M4.34912 8.77822C2.8152 10.4307 2 12 2 12C2 12 5.63636 19 12 19C12.8021 19 13.5608 18.8888 14.2744 18.6944M11.5 14.9585C10.4158 14.7766 9.52883 14.0132 9.17071 13M12.5 9.04148C13.7563 9.25224 14.7478 10.2437 14.9585 11.5M3 3L21 21" stroke="#1F1F1F" stroke-width="1.5" stroke-linecap="round" stroke-linejoin="round" />
		</symbol>
		<symbol id="eye-open" viewBox="0 0 24 24 " fill="none">
			<path d="M2 12C2 12 5.63636 5 12 5C18.3636 5 22 12 22 12C22 12 18.3636 19 12 19C5.63636 19 2 12 2 12Z" stroke="#1F1F1F" stroke-width="1.5" stroke-linecap="round" stroke-linejoin="round" />
			<path d="M12 15C13.6569 15 15 13.6569 15 12C15 10.3431 13.6569 9 12 9C10.3431 9 9 10.3431 9 12C9 13.6569 10.3431 15 12 15Z" stroke="#1F1F1F" stroke-width="1.5" stroke-linecap="round" stroke-linejoin="round" />
		</symbol>

    <symbol id="logout" viewBox="0 0 32 32">
    <path d="M24 9.333l-1.846 1.88 3.377 3.453h-13.313v2.667h13.313l-3.377 3.44 1.846 1.893 6.545-6.667-6.545-6.667zM6.982 6.667h10.473v-2.667h-10.473c-1.44 0-2.618 1.2-2.618 2.667v18.667c0 1.467 1.178 2.667 2.618 2.667h10.473v-2.667h-10.473v-18.667z"></path>
    </symbol>

    <symbol id="login" viewBox="0 0 32 32">
<path d="M17.455 28v-2.667h10.182v-18.667h-10.182v-2.667h10.182c0.8 0 1.485 0.261 2.055 0.783s0.855 1.15 0.855 1.883v18.667c0 0.733-0.285 1.361-0.855 1.883s-1.255 0.783-2.055 0.783h-10.182zM14.545 22.667l-2-1.933 3.709-3.4h-11.891v-2.667h11.891l-3.709-3.4 2-1.933 7.273 6.667-7.273 6.667z"></path>
</symbol>

<symbol id="contacts" viewBox="0 0 32 32">
<path d="M5.891 28c-0.436 0-0.8-0.133-1.091-0.4s-0.436-0.6-0.436-1v-5.4c0-0.289 0.109-0.55 0.327-0.783s0.497-0.394 0.836-0.483l5.018-0.933c0.339-0.044 0.685-0.017 1.036 0.083s0.636 0.25 0.855 0.45l3.418 3.133c0.921-0.489 1.794-1.028 2.618-1.617s1.612-1.228 2.364-1.917c0.8-0.711 1.533-1.45 2.2-2.217s1.242-1.561 1.727-2.383l-3.527-3.267c-0.194-0.178-0.327-0.389-0.4-0.633s-0.085-0.544-0.036-0.9l0.945-4.667c0.048-0.289 0.206-0.539 0.473-0.75s0.57-0.317 0.909-0.317h5.891c0.436 0 0.8 0.133 1.091 0.4s0.436 0.6 0.436 1c0 2.778-0.661 5.522-1.982 8.233s-3.194 5.178-5.618 7.4c-2.424 2.222-5.115 3.939-8.073 5.15s-5.952 1.817-8.982 1.817zM26.109 12c0.412-0.867 0.727-1.744 0.945-2.633s0.388-1.789 0.509-2.7h-3.2l-0.655 3.133 2.4 2.2zM13.091 23.867l-2.4-2.2-3.418 0.667v2.933c0.994-0.067 1.976-0.222 2.945-0.467s1.927-0.555 2.873-0.933z"></path>
</symbol>

 <symbol id="mail" viewBox="0 0 32 32">
      <path  d="M5.333 26.667c-.733 0-1.361-.261-1.883-.783s-.783-1.15-.783-1.883v-16c0-.733.261-1.361.783-1.883s1.15-.783 1.883-.783h21.333c.733 0 1.361.261 1.883.783s.783 1.15.783 1.883v16c0 .733-.261 1.361-.783 1.883s-1.15.783-1.883.783H5.333zM16 17.333 5.333 10.666v13.333h21.333V10.666l-10.667 6.667zm0-2.666L26.667 8H5.334l10.667 6.667zm-10.667-4z"/>
</symbol>

<symbol  id="profile" viewBox="0 0 32 32" >
<path fill="none" d="M0 0h24v24H0z"/> <path d="M11 14.062V20h2v-5.938c3.946.492 7 3.858 7 7.938H4a8.001 8.001 0 0 1 7-7.938zM12 13c-3.315 0-6-2.685-6-6s2.685-6 6-6 6 2.685 6 6-2.685 6-6 6z"/> 
</symbol>

<symbol  id="key" viewBox="0 0 32 32" width="50" height="50">
<path d="M0 8a4 4 0 0 1 7.465-2H14a.5.5 0 0 1 .354.146l1.5 1.5a.5.5 0 0 1 0 .708l-1.5 1.5a.5.5 0 0 1-.708 0L13 9.207l-.646.647a.5.5 0 0 1-.708 0L11 9.207l-.646.647a.5.5 0 0 1-.708 0L9 9.207l-.646.647A.5.5 0 0 1 8 10h-.535A4 4 0 0 1 0 8zm4-3a3 3 0 1 0 2.712 4.285A.5.5 0 0 1 7.163 9h.63l.853-.854a.5.5 0 0 1 .708 0l.646.647.646-.647a.5.5 0 0 1 .708 0l.646.647.646-.647a.5.5 0 0 1 .708 0l.646.647.793-.793-1-1h-6.63a.5.5 0 0 1-.451-.285A3 3 0 0 0 4 5z"/> 
<path d="M4 8a1 1 0 1 1-2 0 1 1 0 0 1 2 0z"/>
</symbol>

<symbol id="edit" viewBox="0 0 32 32">
			<path d="m6.667 20.941-.707-.707a.997.997 0 0 0-.293.707h1zM20.941 6.667l.707-.707a1 1 0 0 0-1.414 0l.707.707zm4.392 4.392.707.707a1 1 0 0 0 0-1.414l-.707.707zM11.059 25.333v1a.997.997 0 0 0 .707-.293l-.707-.707zm-4.392 0h-1a1 1 0 0 0 1 1v-1zm8.784-1a1 1 0 0 0 0 2v-2zm9.333 2a1 1 0 0 0 0-2v2zM7.373 21.648 21.648 7.373 20.235 5.96 5.96 20.235l1.413 1.413zM20.235 7.373l4.392 4.392 1.413-1.413-4.392-4.392-1.413 1.413zm4.392 2.979L10.352 24.627l1.413 1.413L26.04 11.765l-1.413-1.413zM11.059 24.333H6.667v2h4.392v-2zm-3.392 1v-4.392h-2v4.392h2zm9.273-14.666 4.392 4.393 1.413-1.413-4.391-4.393-1.415 1.413zm-1.489 15.666h9.333v-2h-9.333v2z" />
		</symbol>

<!-- <symbol id="up" viewBox="0 0 32 32">
<path d="M16 3.088c6.511 0 11.789 5.278 11.789 11.789s-5.278 11.789-11.789 11.789c-6.511 0-11.789-5.278-11.789-11.789s5.278-11.789 11.789-11.789z"></path>
<path d="M11.613 18.95l-1.4-1.46 6.002-6.257 6.002 6.257-1.4 1.46-4.601-4.771-4.601 4.771z"></path>
</symbol>   -->

<symbol id="up" viewBox="0 0 50 32">
<path d="M6.138 31.439l-5.702-5.944 24.436-25.474 24.436 25.474-5.702 5.944-18.735-19.424-18.735 19.424z"></path>
</symbol>

<symbol id="calendar" viewBox="0 0 32 32">
<path d="M9.333 14.667h2.667v2.667h-2.667v-2.667zM9.333 20h2.667v2.667h-2.667v-2.667zM14.667 14.667h2.667v2.667h-2.667v-2.667zM14.667 20h2.667v2.667h-2.667v-2.667zM20 14.667h2.667v2.667h-2.667v-2.667zM20 20h2.667v2.667h-2.667v-2.667z"></path>
<path d="M6.667 29.333h18.667c1.471 0 2.667-1.196 2.667-2.667v-18.667c0-1.471-1.196-2.667-2.667-2.667h-2.667v-2.667h-2.667v2.667h-8v-2.667h-2.667v2.667h-2.667c-1.471 0-2.667 1.196-2.667 2.667v18.667c0 1.471 1.196 2.667 2.667 2.667zM25.333 10.667l0.001 16h-18.668v-16h18.667z"></path>
</symbol>


<symbol id="hotel" viewBox="0 0 32 32">
<path fill="#fadbbc" style="fill: var(--color13, #fadbbc)" d="M0.92 10.778l4.258 0.052c0 0-0.018-2.507 0-2.695 0.018-0.185 0.168-0.242 0.407-0.242h2.88c0 0 1.052-4.93 7.667-4.895 6.27 0.033 7.473 4.84 7.473 4.84s2.805 0.037 2.99 0.037c0.185 0 0.277 0.148 0.277 0.353v2.565h4.195l-0.2 0.482-1.225 2.063-27.31-0.003-1.413-2.557z"></path>
<path fill="#b99277" style="fill: var(--color14, #b99277)" d="M5.15 12.925l-2.675 0.002c0 0-1.133-1.85-1.232-1.995-0.133-0.187-0.43-0.157-0.527-0.142-0.167 0.022-0.035 0.292 0.152 0.562s0.985 1.608 0.985 1.608v18.005h28.305l0.022-17.945c0 0 0.995-1.635 1.093-1.798s0.245-0.422 0.065-0.432c-0.195-0.010-0.42-0.045-0.613 0.257-0.22 0.348-1.145 1.79-1.145 1.79h-2.7v-2.795h-4.15c0 0-0.147-5.71-6.787-5.67-6.638 0.043-6.563 5.665-6.563 5.665h-4.195c0 0.003-0.035 2.838-0.035 2.888z"></path>
<path fill="#e2c090" style="fill: var(--color15, #e2c090)" d="M2.465 14.048h2.647v11.070l-2.67 0.025 0.022-11.095zM5.785 11.168v11.095l20.495-0.023v-11.025h-4.827c0 0 0.345-5.603-5.363-5.662-5.917-0.065-5.477 5.57-5.477 5.57l-4.828 0.045z"></path>
<path fill="#fadbbc" style="fill: var(--color13, #fadbbc)" d="M10.613 11.122l-1.54 0.012v19.84h1.592c0.003 0-0.037-19.852-0.052-19.852zM21.453 11.215h1.597l-0.002 19.753h-1.668c0 0 0.113-19.843 0.073-19.753z"></path>
<path fill="#e2c090" style="fill: var(--color15, #e2c090)" d="M29.562 14.14h-2.58v10.975h2.555l0.025-10.975z"></path>
<path fill="#ffa828" style="fill: var(--color16, #ffa828)" d="M12.555 24.863l-0.007 6.187h7.002l0.008-6.377-7.003 0.19z"></path>
<path fill="#546f7a" style="fill: var(--color17, #546f7a)" d="M13.2 25.665v4.657h2.47v-4.642l-2.47-0.015zM16.377 25.713h2.44l0.062 4.61h-2.485l-0.017-4.61z"></path>
<path fill="#faddc3" style="fill: var(--color18, #faddc3)" d="M5.173 24.757c0 0.077 0.020 6.652 0.058 6.71s1.857 0.077 1.935 0c0.020-0.020 0-6.75 0-6.75l-1.992 0.040zM24.918 24.817c0 0-0.073 6.36-0.020 6.517 0.020 0.058 1.832 0.108 1.935 0.038 0.057-0.038 0.057-6.575 0.057-6.575l-1.972 0.020z"></path>
<path fill="#2f7c31" style="fill: var(--color19, #2f7c31)" d="M28.447 29.232c-0.37-0.015-1.14-0.358-1.063-1.565 0.075-1.183 0.665-1.845 1.063-1.86s1.062 1.020 1.062 1.89c0 1.005-0.412 1.562-1.062 1.535zM3.667 25.822c-0.373 0.015-1.12 0.99-1.092 2.082 0.030 1.153 0.65 1.418 1.048 1.448s1.093-0.458 1.063-1.52c-0.030-1.063-0.647-2.025-1.018-2.010z"></path>
<path fill="#e2c090" style="fill: var(--color15, #e2c090)" d="M2.74 29.16c-0.040 0.1 0.015 1.807 0.015 1.807l1.683-0.002c0 0 0.027-1.748 0.027-1.808 0.003-0.057-1.705-0.047-1.725 0.003zM27.545 29.085c-0.015-0.075 1.727-0.060 1.742-0.015 0.033 0.097-0.025 1.905-0.025 1.905h-1.712l-0.005-1.89z"></path>
<path fill="#af0c1a" style="fill: var(--color20, #af0c1a)" d="M4.855 22.977c0 0 0.018 1.465 0.030 1.707s-0.027 0.473 0.515 0.478c0.532 0.005 21.173 0.010 21.44 0.010s0.57-0.153 0.595-0.535c0.025-0.38 0.013-1.608 0.013-1.608l-11.59-0.4-11.003 0.348z"></path>
<path fill="#fadbbc" style="fill: var(--color13, #fadbbc)" d="M27.448 23.030c0 0 0.012-0.55 0.012-0.72 0-0.173-0.152-0.305-0.592-0.315s-21.13-0.038-21.56-0.038c-0.43 0-0.44 0.225-0.46 0.435s0.005 0.585 0.005 0.585l22.595 0.053z"></path>
<path fill="#6c1507" style="fill: var(--color21, #6c1507)" d="M11.725 9.41h2.16v11.41h-2.16v-11.41zM18.262 9.41h2.16v11.41h-2.16v-11.41z"></path>
<path fill="#6c1507" style="fill: var(--color21, #6c1507)" d="M13.543 14.092h5v2.25h-5v-2.25z"></path>
<path fill="#536f79" style="fill: var(--color22, #536f79)" d="M23.92 11.652h1.595v2.515h-1.595v-2.515zM23.913 15.157h1.595v2.515h-1.595v-2.515zM23.913 18.725h1.595v2.515h-1.595v-2.515zM6.685 11.765h1.595v2.515h-1.595v-2.515zM6.678 15.27h1.595v2.515h-1.595v-2.515zM6.678 18.837h1.595v2.515h-1.595v-2.515zM2.978 15.29h1.595v2.515h-1.595v-2.515zM2.978 18.855h1.595v2.515h-1.595v-2.515zM27.485 15.167h1.595v2.515h-1.595v-2.515zM27.485 18.735h1.595v2.515h-1.595v-2.515z"></path>
</symbol>

<!-- flags -->

<svg xmlns="http://www.w3.org/2000/svg" id="Італія" viewBox="0 0 64 64">
<path fill="#75a843" d="M1.7 32c0 13.1 8.4 24.2 20 28.3V3.7C10.1 7.8 1.7 18.9 1.7 32"/><path fill="#ed4c5c" d="M61.7 32c0-13.1-8.4-24.2-20-28.3v56.6c11.7-4.1 20-15.2 20-28.3"/><path fill="#fff" d="M21.7 60.3c3.1 1.1 6.5 1.7 10 1.7s6.9-.6 10-1.7V3.7C38.6 2.6 35.2 2 31.7 2s-6.9.6-10 1.7z"/>
</svg>

<symbol xmlns="http://www.w3.org/2000/svg" id="Іспанія" viewBox="0 0 64 64">
<path fill="#ffce31" d="M2 32c0 5.9 1.7 11.4 4.6 16h50.7c2.9-4.6 4.6-10.1 4.6-16s-1.7-11.4-4.6-16H6.6C3.7 20.6 2 26.1 2 32"/><path fill="#ed4c5c" d="M57.4 16C52.1 7.6 42.7 2 32 2S11.9 7.6 6.6 16zM6.6 48c5.3 8.4 14.7 14 25.4 14s20.1-5.6 25.4-14z"/><path fill="#c8b100" d="M9.2 28.7h3.2v1.8H9.2zm0 13.2h3.3v1.7H9.2z"/><path fill="#ed4c5c" d="M8.9 39.1c-.3.2-.5.4-.5.5c0 .1.1.2.3.3c.2.1.4.3.3.5c.2-.2.3-.4.3-.6c0-.3-.2-.6-.4-.7"/><path fill="#fff" d="M9.7 30.5H12v11.4H9.7z"/><g fill="#ed4c5c"><path d="M14.4 34.7c-.5-.2-1.4-.4-2.4-.4c-.3 0-.7 0-1.1.1c-1.4.2-2.5.8-2.4 1.2L8 34.5c-.1-.5 1.1-1.1 2.6-1.4c.5-.1 1-.1 1.4-.1c1 0 1.9.1 2.4.3z"/><path d="M9.7 36.2c-.6 0-1.1-.2-1.1-.5c0-.2.2-.5.6-.7h.6zm2.3-.9c.4.1.7.2.9.3c.1.1-.3.5-.9.8z"/><path d="M8.2 38.4c-.1-.2.6-.6 1.5-.9c.4-.1.7-.3 1.2-.5c1.2-.5 2.2-1.2 2-1.4l.2 1.2c.1.2-.7.8-1.9 1.4c-.4.2-1.1.5-1.5.6c-.7.2-1.3.6-1.3.7z"/></g><path fill="#c8b100" d="M30.7 28.7h3.2v1.8h-3.2zm-.1 13.2h3.3v1.7h-3.3z"/><path fill="#ed4c5c" d="M34.2 39.1c.3.2.5.4.5.5c0 .1-.1.2-.3.3c-.2.2-.4.5-.3.6c-.2-.2-.3-.4-.3-.6c0-.4.2-.7.4-.8"/><path fill="#fff" d="M31.1 30.5h2.3v11.4h-2.3z"/><g fill="#ed4c5c"><path d="M28.7 34.7c.5-.2 1.4-.4 2.4-.4c.3 0 .7 0 1.1.1c1.4.2 2.5.8 2.4 1.2l.5-1.2c.1-.5-1.1-1.1-2.6-1.4h-1.4c-1 0-1.9.1-2.4.3z"/><path d="M33.4 36.2c.6 0 1.1-.2 1.1-.5c0-.2-.2-.5-.6-.7h-.6zm-2.3-.9c-.4.1-.7.2-.9.3c-.1.1.3.5.9.8z"/><path d="M34.9 38.4c.1-.2-.6-.6-1.5-.9c-.4-.1-.7-.3-1.2-.5c-1.2-.5-2.2-1.2-2-1.4l-.2 1.2c-.1.2.7.8 1.9 1.4c.4.2 1.1.5 1.5.6c.7.2 1.3.7 1.2.8zM21.5 22.3c1.9 0 5.8.4 7.2 1.8c-1.5 3.6-3.9 2.1-7.2 2.1c-3.2 0-5.7 1.5-7.2-2.1c1.4-1.4 5.2-1.8 7.2-1.8"/></g><path fill="#c8b100" d="M26.4 26.3c-1.2-.7-3-.8-4.9-.8c-1.9 0-3.7.2-4.9.8L17 28c1.1.3 2.7.5 4.5.5c1.8 0 3.3-.2 4.5-.5zm1.7-4.3c-.4-.3-1.2-.6-1.9-.6c-.3 0-.6 0-.9.1c0 0-.6-.8-2-.8c-.5 0-.9.1-1.3.3v-.1c-.1-.2-.3-.4-.5-.4s-.5.3-.5.5v.1c-.4-.2-.8-.3-1.3-.3c-1.4 0-2 .9-2 .8c-.3-.1-.6-.1-.9-.1c-4.6 0-2.3 3.1-2.3 3.1l.5-.6c-1.1-1.4-.1-2.2 1.9-2.2c.3 0 .5 0 .7.1c-.7 1 .6 1.9.6 1.9l.3-.5c-.7-.5-.8-2.2 1.2-2.2c.5 0 .9.1 1.3.4c0 .1-.1 1.5-.2 1.7l.8.7l.8-.7c-.1-.3-.2-1.6-.2-1.7c.3-.2.8-.4 1.3-.4c2.1 0 2.1 1.7 1.2 2.2l.3.5s1.1-.9.6-1.9c.2 0 .5-.1.7-.1c2.4 0 2.5 1.8 1.9 2.2l.4.6c-.2 0 .9-1.4-.5-2.6"/><path fill="#005bbf" d="M20.9 20.1c0-.3.3-.6.6-.6c.4 0 .6.3.6.6s-.3.6-.6.6s-.6-.3-.6-.6"/><path fill="#c8b100" d="M21.3 18.4v.3H21v.3h.3v1h-.4v.3h1.2l.1-.2l-.1-.1h-.4v-1h.3v-.3h-.3v-.3z"/><path fill="#ed4c5c" d="M21.5 28.3c-1.6 0-3-.2-4.1-.5c1.1-.3 2.5-.5 4.1-.5c1.6 0 3 .2 4.1.5c-1 .3-2.5.5-4.1.5"/><path fill="#fff" d="M21.6 45.6c-1.9 0-3.7-.5-5.3-1.2c-1.2-.6-1.9-1.7-1.9-3v-4.8h14.4v4.8c0 1.3-.8 2.5-1.9 3c-1.6.8-3.4 1.2-5.3 1.2m-.1-17h7.2v8h-7.2z"/><path fill="#ed4c5c" d="M21.6 41.4c0 1.9-1.6 3.4-3.6 3.4s-3.6-1.5-3.6-3.4v-4.8h7.2z"/><path fill="#c8b100" d="M15.9 44.2c.2.1.5.3.9.4v-8.2H16zm-1.6-2.9c0 1 .4 1.8.8 2.2v-7.1h-.8z"/><path fill="#c7b500" d="M17.5 44.8h.8v-8.4h-.8z"/><path fill="#c8b100" d="M19.1 44.6c.3-.1.7-.3.9-.4v-7.8h-.8z"/><path fill="#ed4c5c" d="M14.3 28.6h7.2v8h-7.2z"/><path fill="#c8b100" d="M20.8 43.5c.4-.3.7-1 .8-1.8v-5.2h-.8z"/><path fill="#ed4c5c" d="M28.8 36.6v4.8c0 1.9-1.6 3.4-3.6 3.4s-3.6-1.5-3.6-3.4v-4.8zM26.2 30c.3.6.3 2.1-.6 1.8c.2.1.3.8.6 1.2c.5.6 1.1.1 1-.6c-.2-1.1-.1-1.8.1-2.9c0 .1.5.1.7-.1c-.1.3-.2.7 0 .7c-.2.3-.7.8-.8 1.1c-.1.7 1 2-.2 2.3c-.8.2-.3.8 0 1.1c0 0-.4 1.3-.2 1.2c-.8.3-.6-.4-.6-.4c.4-1.2-.7-1.3-.6-1.5c-1-.1.1.9-.8.9c-.2 0-.6.2-.6.2c-1.1-.1-.5-1.1-.1-1c.3.1.6.6.6-.1c0 0-.5-.8.8-.8c-.5 0-.8-.4-1-.9c-.2.1-.5.6-1.6.7c0 0-.3-1.1 0-.9c.4.2.6.2 1-.2c-.2-.3-1.4-.7-1.2-1.4c0-.2.6-.5.6-.5c-.1.5.2 1 .8 1c.8.1.5-.2.6-.4c.1-.2.7.1.5-.4c0-.1-.7-.2-.5-.5c.4-.5 1-.1 1.5.4m-4.6 14.6l-.2-.5l.2-.6l.2.6z"/><path fill="#c8b100" d="M16.5 30.3v.5h.2v.4h-.5v1h.3v2.2h-.6v1.1H20v-1.1h-.5v-2.2h.2v-1h-.5v-.4h.3v-.5h-1v.5h.2v.4h-.5V30h.3v-.5h-1.1v.5h.3v1.2h-.5v-.4h.2v-.5zm11.3 12.3v-5h-5.2v5l2.4 1.1h.3zM25 38v1.7L23.3 38zm-2.1.1l2 2l-2 2zm.2 4.4l1.9-1.9v2.8zm2.2.8v-2.8l1.9 1.9zm2.1-1.2l-2-2l2-2zM25.3 38H27l-1.7 1.7z"/><path fill="#ed4c5c" d="M19.2 36.5c0-1.5 1-2.6 2.3-2.6s2.3 1.2 2.3 2.6c0 1.4-1 2.6-2.3 2.6s-2.3-1.1-2.3-2.6"/><path fill="#005bbf" d="M19.9 36.5c0-1.1.7-1.9 1.6-1.9c.9 0 1.6.9 1.6 1.9c0 1.1-.7 1.9-1.6 1.9c-.8.1-1.6-.8-1.6-1.9"/><path fill="#c8b100" d="m20.8 35.2l-.4 1.1l.3.1l-.2.4h.6l-.2-.4l.3-.1zm1.5 0l-.4 1.1l.3.1l-.2.4h.6l-.1-.4l.3-.1zm-.7 1.3l-.5 1.1l.3.1l-.1.4h.5l-.1-.4l.3-.1z"/>
</symbol>

<symbol xmlns="http://www.w3.org/2000/svg" id="Туніс" viewBox="0 0 64 64">
<circle cx="32" cy="32" r="30" fill="#ed4c5c"/><circle cx="32" cy="32" r="17.3" fill="#fff"/><circle cx="32" cy="32" r="13" fill="#ed4c5c"/><circle cx="35.5" cy="32" r="10.4" fill="#fff"/><path fill="#ed4c5c" d="m38.4 32l3.4-4.6l-5.4 1.8l-3.3-4.6v5.7L27.7 32l5.4 1.7v5.7l3.3-4.6l5.4 1.8z"/>
</symbol>

<symbol xmlns="http://www.w3.org/2000/svg" id="Франція" viewBox="0 0 64 64"><path fill="#428bc1" d="M1.9 32c0 13.1 8.4 24.2 20 28.3V3.7C10.3 7.8 1.9 18.9 1.9 32"/><path fill="#ed4c5c" d="M61.9 32c0-13.1-8.3-24.2-20-28.3v56.6c11.7-4.1 20-15.2 20-28.3"/><path fill="#fff" d="M21.9 60.3c3.1 1.1 6.5 1.7 10 1.7s6.9-.6 10-1.7V3.7C38.8 2.6 35.5 2 31.9 2s-6.9.6-10 1.7z"/>
</symbol>

<symbol xmlns="http://www.w3.org/2000/svg" id="Туреччина" viewBox="0 0 64 64">
<circle cx="32" cy="32" r="30" fill="#ed4c5c"/><g fill="#fff"><path d="m41.3 39l.1-5.4L36 32l5.4-1.6l-.1-5.4l3.3 4.3l5.4-1.6l-3.3 4.3l3.3 4.3l-5.4-1.6z"/><path d="M33.2 44c-6.6 0-11.9-5.4-11.9-12s5.3-12 11.9-12c2.5 0 4.8.8 6.8 2.1C37.3 19 33.3 17 28.8 17C20.6 17 14 23.7 14 32s6.6 15 14.8 15c4.5 0 8.5-2 11.2-5.1c-1.9 1.3-4.2 2.1-6.8 2.1"/></g>
</symbol>

<symbol xmlns="http://www.w3.org/2000/svg" id="Єгипет" viewBox="0 0 64 64">
<path fill="#ed4c5c" d="M32 2C18.9 2 7.8 10.4 3.7 22h56.6C56.2 10.4 45.1 2 32 2"/><path fill="#3e4347" d="M32 62c13.1 0 24.2-8.3 28.3-20H3.7C7.8 53.7 18.9 62 32 62"/><path fill="#f9f9f9" d="M3.7 22C2.6 25.1 2 28.5 2 32s.6 6.9 1.7 10h56.6c1.1-3.1 1.7-6.5 1.7-10s-.6-6.9-1.7-10z"/><g fill="#fff"><path d="M30.6 25.1c.3-.2.5 0 .7.2c.1.2.1.8-.1 1.5c-.1.4-.4.8-.6 1.1c.4 0 .9-.1 1.4-.3c.5.2.9.3 1.4.3c-.2-.4-.4-1.2-.3-1.8c0-.9-.1-1.2-.3-1.4c-.2-.2-.7-.3-1-.3c-.2 0-.2.1-.2.1c-.4-.1-.7-.1-.9 0c-.2.2-.2.7-.1.6"/><path d="M37.3 28.1c-.2-1.1-1.3-.8-2.2-.3c-.4.2-.8.4-1.2.4h-.3c-.5 0-1.1-.1-1.6-.3c-.5.2-1.1.3-1.6.3h-.2c-.5 0-.9-.2-1.3-.5c-.8-.4-1.9-.7-2.2.3c.2-.1.4-.3.5-.3l-.4 9.6l.2-.2l.4-9.3c.1.1.5.5.6.5l-.3 8.1l.3-.3l.3-7.7c.1.1.4.3.5.4l-.3 6.7l.8-.7l.8-2.7c-.7-1.5-.6-2.8-.6-2.8h.2c.5 0 1.6-.3 2.1-.6c.1 0 .1-.1.2-.1c0 .1.1.1.2.2c.5.3 1.6.6 2.1.6h.2s.1 1.3-.6 2.8l.7 2.6l.8.7l-.3-6.6c.1-.1.3-.3.5-.4l.3 7.5l.3.3l-.3-8c.1-.1.5-.4.6-.5l.4 9.2l.2.2l-.4-9.5c.1.1.4.3.6.4"/><path d="M31.1 29.7v3.9s0 .1.1.1c.1.2.3.3.4.5l.3.3l.3-.3l.5-.5v-3.8c-.3-.1-.6-.2-.8-.4c-.1-.1-.4 0-.8.2"/></g><path fill="#c09300" d="M36.3 37.9c0-.5-.5-.5-.9-.4c-.1 0-.1 0-.2.1l-.6-2.2l3.3 3.2l-.4-10.4c-.1-1.6-1.4-1.2-2.3-.6c-.5.3-.9.5-1.4.5c-.7-1.2-.3-2.8-.8-3.2c-.2-.2-.9-.5-1.4-.5c-.3 0-.2.2-.2.2c-.5-.1-.9-.1-1.1.1c-.2.1 0 1.1.1.9c.3-.3.4-.2.6.1c.2.3-.2 1.5-.7 2.4c-.6 0-1.1-.2-1.6-.5c-1-.6-2.3-.9-2.3.6L26 38.5l3.3-3.1l-.6 2.1c-.1 0-.1 0-.2-.1c-.4-.1-.9-.1-.9.4c-.6-.1-.8.8-.2 1c0 .3 0 .5.4.5c.9.3 2.5.4 4.1.4s3.2-.1 4.1-.4c.4-.1.4-.3.4-.5c.8-.2.5-1.1-.1-.9m-5.1-4.3c0-.1 0-.1 0 0l-.1-.1v-3.8c.4-.1.7-.2.9-.4c.2.2.5.3.8.4v3.8c-.2.2-.3.4-.5.5l-.3.3l-.3-.3c-.2-.1-.3-.3-.5-.4m0-6.7c.2-.7.2-1.3.1-1.5c-.2-.2-.4-.4-.7-.2c-.1.1-.1-.4.1-.5c.2-.1.5-.1.9 0c0 0 0-.2.2-.1c.3 0 .9.2 1 .3c.1.1.3.5.3 1.4c0 .6.1 1.4.3 1.8c-.4 0-.9-.1-1.4-.3c-.5.2-.9.3-1.4.3c.2-.4.5-.8.6-1.2m-2.6 8.9l.3-6.7c-.1-.1-.3-.3-.5-.4l-.4 7.6l-.3.3l.3-8.1c-.1-.1-.5-.4-.6-.5l-.4 9.3l-.2.2l.4-9.6c-.1 0-.4.1-.5.3c.3-1 1.4-.7 2.2-.2c.4.3.9.4 1.3.5h.2c.5 0 1-.1 1.6-.3c.6.2 1.1.3 1.6.3h.3c.4-.1.8-.2 1.2-.4c.9-.5 2-.8 2.2.3c-.2-.1-.5-.3-.6-.3l.4 9.5l-.2-.2l-.4-9.4c-.1.1-.5.5-.6.5l.3 8l-.3-.3l-.3-7.5c-.1.1-.4.3-.5.4l.3 6.6l-.8-.7l-.7-2.6c.7-1.5.6-2.8.6-2.8h-.2c-.5 0-1.6-.2-2.1-.6c-.1 0-.1-.1-.2-.2c0 0-.1.1-.2.1c-.5.3-1.6.6-2.1.6h-.2s-.1 1.3.6 2.8l-.8 2.7zm3.4 2h-1.1l.7-3.4c.1.1.2.2.4.3c.1-.1.3-.2.4-.3l.8 3.4z"/>
</symbol>

<symbol xmlns="http://www.w3.org/2000/svg" id="Албанія" viewBox="0 0 64 64"><circle cx="32" cy="32" r="30" fill="#f42f4c"/><path fill="#3e4347" d="M48.9 41.9c-.9-1.6-3.4-.4-4.7-.4c.7-.6 2.5-1.9 3.5-1.9c-.7-.6-2-.1-2.5.5c-1.8 2.1-2.9 1-5.5.2c2.1-2.2-6-3.8-3.4-5.6c.5-.4 1.4 3.1 2.8 2.5c.6-.2-2.3-2.5-.8-3c.5-.2 2.5 5.7 3.9 3.3c.5-.9-3.1-1.7-2.1-3.5c-.7 1.3 8.8 6.2 7.6 3c-.6-1.5-6.4-.4-5.9-4.3c-.1 1 6.7 4.2 6 1.3c-.2-.7-6.9-.2-5.7-3.4c.2-.5 5.9 3.9 5.7.7c-.1-1.2-6.1-.3-5.5-2.9c0-.1 6.2 2.6 5.5-.2c-.1-.4-6.9.4-5.6-2c-.6 1.1 8.1.6 5.5-1.6c-.9-.7-4.7 2.7-5.5-.3c.1.4 7.5-.6 5.4-2.7c-.5-.6-5.2 3.1-5.3.7c0-.5 6.2-3.4 5.3-4.9c-1.1-1.8-7.2 3.2-7.9 3.5c-4.7 2.2 0 .9-2.3 3.7c-1.4 1.6-2.5-.9-2.1-2c.8-2.3 5.6-2 5.8-3.5c-.7.5-1.4.4-2 0c.1 0 5.1-.7 3.4-1.4c-.2-.1-.8.3-1.4.6c.1-2.4-6.4-.6-7.1-.5c2.7 2.3-2.2 1 .6 2.2c-.7.1-1.3.4-1.9.9c1.3.1-.7 1.6-.7 1.6s-2-1.4-.8-1.7c-.5-.5-1.2-.8-1.9-.9c2.8-1.2-2.1.1.6-2.2c-.6 0-7.2-1.9-7.1.5c-.6-.3-1.2-.6-1.4-.6c-1.6.7 3.3 1.4 3.4 1.4c-.6.5-1.3.5-2 0c.2 1.5 5 1.2 5.8 3.5c.4 1.1-.7 3.6-2.1 2c-2.4-2.8 2.3-1.5-2.3-3.7c-.7-.3-6.8-5.3-7.9-3.5c-.9 1.5 5.3 4.4 5.3 4.9c-.2 2.4-4.8-1.3-5.3-.7c-2.1 2.1 5.3 3.1 5.4 2.7c-.7 3-4.6-.4-5.5.3c-2.6 2.1 6.1 2.7 5.5 1.6c1.2 2.3-5.5 1.6-5.6 2c-.7 2.8 5.5.1 5.5.2c.6 2.7-5.4 1.7-5.5 2.9c-.2 3.2 5.5-1.1 5.7-.7c1.2 3.2-5.5 2.7-5.7 3.4c-.8 3 6.1-.2 6-1.3c.5 3.9-5.3 2.8-5.9 4.3c-1.2 3.2 8.3-1.7 7.6-3c1 1.8-2.6 2.6-2.1 3.5c1.4 2.4 3.4-3.5 3.9-3.3c1.5.5-1.4 2.8-.8 3c1.4.6 2.3-2.9 2.8-2.5c2.6 1.8-5.5 3.4-3.4 5.6c-2.6.8-3.8 1.9-5.5-.2c-.5-.6-1.9-1-2.5-.5c1 0 2.8 1.4 3.5 1.9c-1.3 0-3.8-1.2-4.7.4c1.1-.5 3.6 0 4.7.1c-1.2 1-3.4.3-3 2.8c.6-2 6.6-3.5 7.3-.7c.7-1.3-2.1-2-2.7-2.2c.4-.1 5.1-.1 5.1-.1s2.6-5.1 3.8-3.9c2.8 3-4.6 4.7-4.9 5.3c-.8 1.9 3.8.2 3.6.1c1.2 1.1-3 2.1-3 2.4c.1 2.1 3.5-.8 3.7-.8c1.6.4-2.3 2.8-2.2 2.5c-.3 2.2 3.4-.7 3.3-1.2c.4.6.4 1.1-.1 1.8c-1.3 2.3-.1 2.6 1.4 5c1.5-2.4 2.7-2.6 1.4-5c-.4-.6-.4-1.2-.1-1.8c-.1.5 3.7 3.4 3.3 1.2c0 .3-3.9-2.2-2.2-2.5c.2 0 3.6 2.9 3.7.8c0-.4-4.3-1.3-3-2.4c-.1.1 4.4 1.9 3.6-.1c-.2-.6-7.7-2.2-4.9-5.3c1.2-1.3 3.8 3.9 3.8 3.9s4.7 0 5.1.1c-.6.2-3.5.9-2.7 2.2c.7-2.9 6.7-1.3 7.3.7c.4-2.5-1.8-1.7-3-2.8c1 0 3.5-.5 4.6 0M41 18.3c-.6.3-1.2.5-1.6.4c.3-.5 1.1-1 1.6-.4m-3.2-.4c1 .2 1 .5 0 .7c-1-.3-1-.5 0-.7m-14.8.4c.5-.6 1.3-.1 1.6.4c-.4.1-1-.1-1.6-.4m3.2.3c-1-.3-1-.5 0-.7c1 .2 1 .4 0 .7"/>
</symbol>

<symbol xmlns="http://www.w3.org/2000/svg" id="Кіпр" viewBox="0 0 64 64"><circle cx="32" cy="32" r="30" fill="#f5f5f5"/><path fill="#699635" d="M12.5 37s-.2 1.4.4 2c.6.6 1.9 1.4 2.4 1.5c.5.1-.6-1.8-.6-1.8s-1.5-2-2.2-1.7m.2 3.4s.2 1.3 1 1.5c.9.2 1.7.1 1.7.1s.1-1.5-2.7-1.6m2.9-2.6s.9.3.9 1.1s-.1 1.6-.1 1.6s-.6-.8-.6-1.2c0-.4-.2-1.5-.2-1.5m-.3 4.8s-.1.8.8.8s.1-1-.8-.8m-.1 1.3s1-.3 2.1-.1c1.1.2 1.7 1.1 1.7 1.1s-1.2.3-2.6 0c-1.3-.3-1.2-1-1.2-1m.7-2.9s1.4-.4 2.7 2.6c0 0-2.6-.6-2.7-2.6m1.4-.6s1.5-.9 2.8 3.1c0 0-1.8-.7-2.8-3.1m2.1 3.7s1.5-.6 3.5 1.8c-3.3-.1-3.5-1.8-3.5-1.8m1-1.1s-.1.9.5.9s.1-1.1-.5-.9m-1.1 2.4s-.1.8.4.8s0-1.1-.4-.8m4.7 2.4s-.1.9.5.9s.1-1.2-.5-.9m1.4-2.7s-.1.9.5.9s.1-1.2-.5-.9m-3.8-1.6s2.2-.6 3.1 2.2c-2.6-.4-3.1-2.2-3.1-2.2m-1.9 3.1s2.5-.6 3.6.2s-2.2 1.2-3.6-.2m4.3 0s1.7-.8 3.5 1c-3.5.4-3.5-1-3.5-1m2.8-1.1s1.7-.5 3.3 2.5c-3.7-.5-3.3-2.5-3.3-2.5m2.8 3.3s-1.8 1.3-4.1-.1c0 .1.8-1.5 4.1.1m21.9-11.9s.2 1.4-.4 2c-.6.6-1.9 1.4-2.4 1.5c-.5.1.6-1.8.6-1.8s1.5-1.9 2.2-1.7m-.2 3.5s-.2 1.3-1.1 1.5c-.9.2-1.7.1-1.7.1s0-1.5 2.8-1.6m-2.9-2.7s-.9.3-.9 1.1s.1 1.6.1 1.6s.6-.8.6-1.2s.2-1.5.2-1.5m.3 4.9s.1.8-.8.8s-.1-1 .8-.8m.1 1.2s-1-.3-2.1-.1c-1.1.2-1.7 1.1-1.7 1.1s1.2.3 2.6 0c1.3-.3 1.2-1 1.2-1m-.7-2.8s-1.4-.4-2.7 2.6c0 0 2.6-.7 2.7-2.6m-1.4-.6s-1.5-.9-2.8 3.1c0 0 1.8-.7 2.8-3.1m-2 3.7s-1.5-.6-3.5 1.8c3.2-.2 3.5-1.8 3.5-1.8M43.6 43s.1.9-.5.9s-.1-1.2.5-.9m1.1 2.3s.1.8-.4.8s0-1 .4-.8M40 47.8s.1.9-.5.9s-.1-1.2.5-.9m-1.4-2.7s.1.9-.5.9s-.1-1.2.5-.9m3.8-1.6s-2.2-.6-3.1 2.2c2.6-.4 3.1-2.2 3.1-2.2m1.9 3s-2.5-.6-3.6.2c-1.1.9 2.2 1.3 3.6-.2m-4.3.1s-1.7-.8-3.5 1c3.5.4 3.5-1 3.5-1m-2.8-1.1s-1.7-.5-3.3 2.5c3.7-.5 3.3-2.5 3.3-2.5m-2.8 3.3s1.8 1.3 4.1-.1c0 .1-.8-1.5-4.1.1m-2.7.7s-1.3 1.7-1.3 1.5c0-.2-.9-.9-.9-.9L31 49l-.6-.3l.3-.4l1.1.5m.2.7s1.3 1.7 1.3 1.5c0-.2.9-.9.9-.9L32.7 49l.6-.3l-.3-.4l-1.1.5m-.3.8h.5"/><path fill="#ff8736" d="M18 29.5s.4 1.1.9 1.1s1.8.1 1.8.1s.7-.1.9-.7c.2-.6.8-3.1 3.8-1.6s3.2-2.6 3.2-2.6l-.5-.7l.1-1.4s1.6 1.1 2.7 1.1c1-.1 1.8.3 2.1.3c.3 0 1.4.3 1.4.3l2.7.1s.4-.4.9-.3c.4.1.4-.3 1.3-.3c.8 0 1.6-1 1.6-1s.2-.2 1.4 0c0 0 .8-.7 2-1c1.2-.4 1-.9 1-.9s.9-.2 1.3-.1s.6-.7.6-.7l.9-.1l.4-.5l.9-.2s1.1-.8 1.3-1.3c.2-.5 1.4-.1 1.4-.1s.5-.5.6-.8c.1-.3.5-.1.5-.1l-.1.9l-.6.3v.5h-.9l-.1.5l-.8.1l-.1.7l-.2.3l-.2.1h-.5l-.2.3l-.5.6l-.4.5l-.8-.1l-.5.7H47l-.5.8l-.4.5l-.2.3l-.4.1l-.1.4l-.7.2l-.8.2l-.3.4s-.9 1.9.1 2.5c1 .7 1 1.4 1 1.4l.5.3l.4.7l.2.8s-.2.1-.4.1c-.3-.2-.7-.2-.7-.2l-.4-.4l-.8-.1l-.5.5s-.2.3-.2.5s-.1.2-.4 0s-.7-.4-.7-.4l-.6-.1l-.1-.3l-.4.2s-.1.3-.3.2c-.2-.1-.4-.1-.4-.1h-.4s-.9.7-.8 2.8l-1 .2l-.5.4l-.2.3h-.7l-.3.3l-.7.3l-.3.4l-1 .1l-.3.2l-.2.4l-.6-.4l-.8-.2l-.7.2l-.4.2c-.2.2-.8.3-.8.3s-.4.1-.4.3c0 .2-.1.6-.1.6v.8s-.1.5-.5.5s-.3 0-.5-.1s-.2-.5-.2-.5v-.6l-.9-.8l-.6-.2l-.6.1l-.5.3l-.5.3s.1.4-.3.1s-.7-.3-.7-.3l-.5-.3l-.7-.2l-.5-.6l-1.3-.1l-1.1-1.3l-.3-.3l-.1-1l-.7-.1v-.5l-.3-.5l.1-1l-.7-.3l-.3-.9z"/>
</symbol>

<symbol xmlns="http://www.w3.org/2000/svg" id="Греція" viewBox="0 0 64 64"><path fill="#428bc1" d="M56 14H32v6h27.5c-.9-2.1-2.1-4.2-3.5-6"/><path fill="#f9f9f9" d="M32 14h24c-1.7-2.3-3.7-4.3-6-6H32zm27.5 6H32v6h29.4c-.4-2.1-1.1-4.1-1.9-6"/><path fill="#428bc1" d="M4.5 44h55c.8-1.9 1.5-3.9 1.9-6H2.6c.4 2.1 1.1 4.1 1.9 6"/><path fill="#f9f9f9" d="M8 50h48c1.4-1.8 2.6-3.9 3.5-6h-55c.9 2.1 2.1 4.2 3.5 6"/><path fill="#428bc1" d="M8 50c1.7 2.3 3.7 4.3 6 6h36c2.3-1.7 4.3-3.7 6-6z"/><path fill="#f9f9f9" d="M14 56c5 3.8 11.2 6 18 6s13-2.2 18-6zm6-24V20h12v-6H20V4.5c-2.1.9-4.2 2.1-6 3.5v6H8c-1.4 1.8-2.6 3.9-3.5 6H14v12H2c0 2.1.2 4.1.6 6h58.8c.4-1.9.6-3.9.6-6z"/><path fill="#428bc1" d="M61.4 26H32v-6H20v12h42c0-2.1-.2-4.1-.6-6M32 2c-4.3 0-8.3.9-12 2.5V14h12V8h18c-5-3.8-11.2-6-18-6M14 14V8c-2.3 1.7-4.3 3.7-6 6zm-9.5 6C2.9 23.7 2 27.7 2 32h12V20z"/>
</symbol>

<symbol xmlns="http://www.w3.org/2000/svg" id="Португалія" viewBox="0 0 64 64"><path fill="#699635" d="M17 58V6C8 11.2 2 20.9 2 32s6 20.8 15 26"/><path fill="#ed4c5c" d="M32 2c-5.5 0-10.6 1.5-15 4v52c4.4 2.6 9.5 4 15 4c16.6 0 30-13.4 30-30S48.6 2 32 2"/><g fill="#ffe62e"><path d="M17 20c-6.6 0-12 5.4-12 12s5.4 12 12 12s12-5.4 12-12s-5.4-12-12-12m0 22.5c-5.8 0-10.5-4.7-10.5-10.5S11.2 21.5 17 21.5S27.5 26.2 27.5 32S22.8 42.5 17 42.5"/><path d="M21.1 43.7c-.2.2-.5.2-.7 0L6.7 25.6c-.2-.2-.2-.5 0-.7l.3-.3c.2-.2.5-.2.7 0l13.7 18.1c.2.2.2.5 0 .7z"/><path d="M17.2 19.5c.3 0 .5.2.5.5v24c0 .3-.2.5-.5.5h-.5c-.3 0-.5-.2-.5-.5V20c0-.3.2-.5.5-.5z"/><path d="M28.9 33.3L17 31.2v1.5l11.7 2.1c.3 0 .5-.1.6-.4l.1-.5c0-.2-.2-.5-.5-.6M17 31.1l-9.4-6.6c-.2-.2-.5-.1-.7.1l-.3.4c-.2.2-.1.5.1.7L17 32.9z"/><path d="m16.6 30l-9.4 9.4c-.2.2-.2.5 0 .7l.4.4c.2.2.5.2.7 0l8.3-8.3zm.4-4.5L4.5 31.4c-.2.1-.4.4-.2.7l.2.5c.1.2.4.4.7.2L17 27.2z"/><path d="m28.1 27.2l-11.9-2.1v1.5l11.7 2.1c.3 0 .5-.1.6-.4l.1-.5c-.1-.3-.3-.6-.5-.6M16.9 38.9c-.2.1-.4.4-.2.7l.2.5c.1.2.4.4.7.2l10-4.6l.5-1.9zm0-3.4L5.7 31.4V33l11.2 4.1z"/><path d="M9.1 38.8v1.5l14.8 1c.6-.4 1.1-.9 1.6-1.4z"/></g><path fill="#fff" d="M12 27v7c0 2.8 2.2 5 5 5s5-2.2 5-5v-7z"/><path fill="#ed4c5c" d="M17 41c-3.9 0-7-3.1-7-7v-9h14v9c0 3.9-3.1 7-7 7m-3-12v5c0 1.7 1.3 3 3 3s3-1.3 3-3v-5z"/><path fill="#0071bc" d="M16.1 29.4V31c0 .3.2.5.5.5h.8c.3 0 .5-.2.5-.5v-1.7h-1.8zm0 2.5v1.7c0 .3.2.5.5.5h.8c.3 0 .5-.2.5-.5v-1.7zm-2 0v1.7c0 .3.2.5.5.5h.8c.3 0 .5-.2.5-.5v-1.7zm4 0v1.7c0 .3.2.5.5.5h.8c.3 0 .5-.2.5-.5v-1.7zm-2 2.4V36c0 .3.2.5.5.5h.8c.3 0 .5-.2.5-.5v-1.7z"/><g fill="#fff"><circle cx="17" cy="32.9" r=".2"/><circle cx="16.6" cy="33.4" r=".2"/><circle cx="17.4" cy="33.4" r=".2"/><circle cx="16.6" cy="32.4" r=".2"/><circle cx="17.4" cy="32.4" r=".2"/><circle cx="17" cy="30.4" r=".2"/><circle cx="16.6" cy="30.9" r=".2"/><circle cx="17.4" cy="30.9" r=".2"/><circle cx="16.6" cy="29.9" r=".2"/><circle cx="17.4" cy="29.9" r=".2"/><circle cx="19" cy="32.9" r=".2"/><circle cx="18.6" cy="33.4" r=".2"/><circle cx="19.4" cy="33.4" r=".2"/><circle cx="18.6" cy="32.4" r=".2"/><circle cx="19.4" cy="32.4" r=".2"/><circle cx="15" cy="32.9" r=".2"/><circle cx="14.6" cy="33.4" r=".2"/><circle cx="15.4" cy="33.4" r=".2"/><circle cx="14.6" cy="32.4" r=".2"/><circle cx="15.4" cy="32.4" r=".2"/><circle cx="17" cy="35.4" r=".2"/><circle cx="16.6" cy="35.9" r=".2"/><circle cx="17.4" cy="35.9" r=".2"/><circle cx="16.6" cy="34.9" r=".2"/><circle cx="17.4" cy="34.9" r=".2"/></g><path fill="#ffe62e" d="M16 28h2l-.2-1v-1h.2v-.5h-.3v.3h-.1v-.3h-.3v.3h-.2v-.3h-.2v.3h-.2v-.3h-.3v.3h-.2v-.3H16v.5h.2v1z"/><path fill="#3e4347" d="M17.3 28h-.1v-.4c0-.1-.1-.2-.2-.2s-.2.1-.2.2v.4h-.1v-.4c0-.2.1-.3.3-.3c.2 0 .3.1.3.3zm-.3-1.1h-.6v-.5c0-.2.1-.3.3-.3c.2 0 .3.1.3.3zm-.5-.1h.4v-.4c0-.1-.1-.2-.2-.2s-.2.1-.2.2zm1.1.1H17v-.5c0-.2.1-.3.3-.3c.2 0 .3.1.3.3zm-.5-.1h.4v-.4c0-.1-.1-.2-.2-.2s-.2.1-.2.2z"/><path fill="#ffe62e" d="M11 28h2l-.2-1v-1h.2v-.5h-.3v.3h-.1v-.3h-.3v.3h-.2v-.3h-.2v.3h-.2v-.3h-.3v.3h-.2v-.3H11v.5h.2v1z"/><g fill="#3e4347"><path d="M12.3 28h-.1v-.4c0-.1-.1-.2-.2-.2s-.2.1-.2.2v.4h-.1v-.4c0-.2.1-.3.3-.3c.2 0 .3.1.3.3zm-.3-1.1h-.6v-.5c0-.2.1-.3.3-.3c.2 0 .3.1.3.3zm-.5-.1h.4v-.4c0-.1-.1-.2-.2-.2s-.2.1-.2.2z"/><path d="M12.6 26.9H12v-.5c0-.2.1-.3.3-.3c.2 0 .3.1.3.3zm-.5-.1h.4v-.4c0-.1-.1-.2-.2-.2s-.2.1-.2.2z"/></g><path fill="#ffe62e" d="M11 33.9h2l-.2-1v-1h.2v-.5h-.2v.3h-.2v-.3h-.2v.3h-.3v-.3h-.2v.3h-.2v-.3h-.2v.3h-.2v-.3H11v.5h.3v1z"/><path fill="#3e4347" d="M12.3 33.9h-.1v-.4c0-.1-.1-.2-.2-.2s-.2.1-.2.2v.4h-.1v-.4c0-.2.1-.3.3-.3c.2 0 .3.1.3.3zm-.3-1.1h-.6v-.5c0-.2.1-.3.3-.3c.2 0 .3.1.3.3zm-.5-.1h.4v-.4c0-.1-.1-.2-.2-.2s-.2.1-.2.2zm1.2.1h-.6v-.5c0-.2.1-.3.3-.3c.2 0 .3.1.3.3zm-.5-.1h.4v-.4c0-.1-.1-.2-.2-.2s-.2.1-.2.2z"/><path fill="#ffe62e" d="M21 34h2l-.2-1v-1h.2v-.4h-.3v.2h-.1v-.2h-.3v.2h-.2v-.2h-.2v.2h-.2v-.2h-.3v.2h-.2v-.2H21v.4h.2v1z"/><path fill="#3e4347" d="M22.3 34h-.1v-.4c0-.1-.1-.2-.2-.2s-.2.1-.2.2v.4h-.1v-.4c0-.2.1-.3.3-.3c.2 0 .3.1.3.3zm-.3-1.1h-.6v-.5c0-.2.1-.3.3-.3c.2 0 .3.1.3.3zm-.5-.1h.4v-.4c0-.1-.1-.2-.2-.2s-.2.1-.2.2zm1.1.1H22v-.5c0-.2.1-.3.3-.3c.2 0 .3.1.3.3zm-.5-.1h.4v-.4c0-.1-.1-.2-.2-.2s-.2.1-.2.2z"/><path fill="#ffe62e" d="M21 28h2l-.2-1v-1h.2v-.5h-.3v.3h-.1v-.3h-.3v.3h-.2v-.3h-.2v.3h-.2v-.3h-.3v.3h-.2v-.3H21v.5h.2v1z"/><path fill="#3e4347" d="M22.3 28h-.1v-.4c0-.1-.1-.2-.2-.2s-.2.1-.2.2v.4h-.1v-.4c0-.2.1-.3.3-.3c.2 0 .3.1.3.3zm-.3-1.1h-.6v-.5c0-.2.1-.3.3-.3c.2 0 .3.1.3.3zm-.5-.1h.4v-.4c0-.1-.1-.2-.2-.2s-.2.1-.2.2zm1.1.1H22v-.5c0-.2.1-.3.3-.3c.2 0 .3.1.3.3zm-.5-.1h.4v-.4c0-.1-.1-.2-.2-.2s-.2.1-.2.2z"/><path fill="#ffe62e" d="m14.2 39.6l1.4-1.5l-.9-.5l-.7-.7l.2-.2l-.3-.3l-.2.2l.2.2l-.1.1l-.2-.2l-.2.2l.2.1l-.2.2l-.1-.2l-.2.2l.2.2l-.2.1l-.1-.2l-.2.2l.1.2l-.1.1l-.1-.2l-.2.2l.3.3h.1l.1-.1l.7.7z"/><path fill="#3e4347" d="m15.1 38.6l-.4-.2c-.1-.1-.2-.1-.3 0c-.1.1-.1.2 0 .3l.3.3l-.1.1l-.3-.3c-.1-.1-.1-.3 0-.4s.3-.1.4 0zm-1-.5l-.4.4l-.3-.3c-.1-.1-.1-.3 0-.4s.3-.1.4 0zm-.4.3l.3-.3l-.3-.3c-.1-.1-.2-.1-.3 0s-.1.2 0 .3zm.9-.8l-.4.4l-.3-.3c-.1-.1-.1-.3 0-.4s.3-.1.4 0zm-.4.3l.3-.3l-.3-.3c-.1-.1-.2-.1-.3 0s-.1.2 0 .3z"/><path fill="#ffe62e" d="m19.8 39.6l-1.4-1.5l.8-.5l.7-.7l-.1-.2l.3-.3l.2.2l-.2.2l.1.1l.2-.2l.2.2l-.2.1l.2.2l.1-.2l.2.2l-.2.2l.2.1l.1-.2l.2.2l-.2.2l.2.1l.1-.2l.2.2l-.3.3h-.1L21 38l-.7.7z"/><path fill="#3e4347" d="m18.9 38.6l.4-.2c.1-.1.2-.1.3 0s.1.2 0 .3l-.4.3l.1.1l.3-.3c.1-.1.1-.3 0-.4c-.1-.1-.3-.1-.4 0zm1.3-.8c.1-.1.3-.1.4 0c.1.1.1.3 0 .4l-.3.3l-.4-.4zm.3.3c.1-.1.1-.2 0-.3c-.1-.1-.2-.1-.3 0l-.2.3l.3.3zm-.8-.8c.1-.1.3-.1.4 0c.1.1.1.3 0 .4l-.3.3l-.4-.4zm.4.3c.1-.1.1-.2 0-.3c-.1-.1-.2-.1-.3 0l-.3.3l.3.3z"/>
</symbol>

<symbol xmlns="http://www.w3.org/2000/svg" id="Мальта" viewBox="0 0 64 64"><path fill="#f9f9f9" d="M2 32c0 16.6 13.4 30 30 30V2C15.4 2 2 15.4 2 32"/><path fill="#ed4c5c" d="M62 32C62 15.4 48.6 2 32 2v60c16.6 0 30-13.4 30-30M8.6 17v5.7h5.7c0 .9.9 1.9 1.9 1.9v5.7h5.7v-5.7c.9 0 1.9-.9 1.9-1.9h5.7V17h-5.7c0-.9-.9-1.9-1.9-1.9V9.5h-5.7v5.7c-.9 0-1.9.9-1.9 1.9H8.6z"/><path fill="#bcbcbc" d="M9.2 17.6v4.5h5.7c0 .9.9 1.9 1.9 1.9v5.7h4.5V24c.9 0 1.9-.9 1.9-1.9h5.7v-4.5h-5.7c0-.9-.9-1.9-1.9-1.9V10h-4.5v5.7c-.9 0-1.9.9-1.9 1.9z"/><path fill="#94989b" d="M16.4 15.7c.3.3.2 1-.2 1.4c-.4.4-1.1.5-1.4.2c-.3-.3-.2-1 .2-1.4c.4-.5 1.1-.6 1.4-.2"/><path fill="#d0d0d0" d="m14.7 16.7l.1-.1l.5.3l-.3-.5l.1-.1l.5 1.1zm.8-.8l.1-.1l.8.8l-.1.1z"/><path fill="#3e4347" d="m17.5 22.9l.2.2l-.2.2l-.2-.2zm3 0l.2.2l-.2.2l-.2-.2zm-1.6.2v.2h-.3v.2h.3v.2h.2v-.2h.3v-.2h-.3v-.2z"/><path fill="#94989b" d="M20.7 19.1c.3-.1.6.2.7.2c.1.2.3 0 .3 0s-.2-.1-.4-.3c-.1 0-.4-.2-.6-.2c-.1.1-.4.3-.4.3s-.1-.2-.2-.2c0-.1-.1-.3-.2-.4l.3-.3c.1 0 .1 0 .1-.1c0 0 .1 0 .1-.1v-.2c-.2 0-.5-.1-.7-.1v-.2s-.1 0-.2.1h-.1c0-.2-.2-.4-.4-.4s-.4.1-.4.3c-1.6-.4-2.4 1.2-2 1.6c.1.1.5-.1.8-.2v.2h-.1l.4.3l.3.2c-.1.1-.3.2-.3.5c-.2.1-.6-.3-.7-.1s-.1.4 0 .6c.1.1-.2.2-.2.3c-.1.1.2.6.3.6v-.2s.2 0 .2-.1V21s.2-.2.2-.4s-.3-.3-.2-.4c.1-.1.4.2.6.1c.1.3.5.5.7.5c0 .1-.1.4-.1.5c0 .1.2 0 .5.1c0 .1-.1.1-.1.1h-.3l-.1.1h-1l.4.3h3.2l.2-.2l-.4-.2l.1-.1h.2c.4.3.6 0 .6 0s-.1 0-.1-.1l-.1-.1s0 .2-.1.2c0 0-.1 0-.2-.1c.2-.1.3-.4.3-.4l.1-.2h.1s0-.1-.1-.1c0 0 0-.1-.1-.1v-.1c-.1 0-.1.3-.1.3s-.2.2-.3.2c0-.2-.3-.4-.2-.5c.1-.1.2.2.4.1c.1 0 .2-.1.2-.3c.1.1.2.1.2.1v-.1h.1l-.1-.1V20h-.1c0-.1-.1-.2-.1-.2h-.1l-.6.2s-.2.1-.2.2s.1.2.2.2c-.1 0-.3-.1-.3-.1l.2.2h-.1c0 .1.1.1.2.1c0 .1.1.1.1.1s0 .1-.1.1s-.3-.3-.4-.2c-.2.1.1.4.1.4l-.1.1l-.1-.1c0-.2.1-.6.3-.8c-.1 0-.3.2-.5.3c-.1-.1-.3-.2-.3-.3c0 0-.1-.1-.1-.2h.1c.3 0 .6-.1.8-.2c.1.1.1.1.2 0c.3.2.3.5.4.3c.1.3.3.2.3.2l-.4-.3s-.2-.2-.4-.3c-.2-.1-.5-.1-.5-.1s.4-.2.4-.5m-.7-.9c0 .1-.1.1-.2.2l-.1-.1s.2-.1.3-.1m-.9-.1l-.1.1l-.1-.1h.1c-.1 0 0-.1.1 0V18zm-.5-.4c0 .1 0 .1.1.2h-.3c0-.1.1-.1.2-.2m-.9 1.6c-.1 0-.1 0 0 0v-.1s-.1 0-.1-.1v-.2l.2-.2c.3-.1.4-.2.4-.2c0 .1 0 .3.1.4c0 .2.2.5.3.6c-.1 0-.3.1-.4.1zm.8 1.8c.1 0 .2-.3.2-.4c.1.2 0 .4.1.4c.1.1.2 0 .2 0c.2 0 .5-.1.5-.1c.1.1.1 0 .2 0c0 .1.1.1.1.1s-.3.1-.4.1c-.2-.1-.4 0-.5.1c-.3 0-.4-.1-.4-.2m1.3-.7v.1h.2s.1 0 .1.1l-.1.1c-.2-.1-.5-.2-.9-.1c.4 0 .4.2.4.2s.2 0 .2.2c.1 0 .1.1.1.1s.1-.1.1.1c.1 0 .1 0 .2.1c-.1-.1-.2-.1-.3-.1c-.1-.1-.2-.2-.3-.2c-.1.1-.4.1-.5.1c-.1 0 0-.1-.1-.1c.1-.1 0-.3 0-.4c0 0 .1 0 .2-.1c.1 0 .2-.1.3-.2c.2-.1.3 0 .4.1"/>
</symbol>

<symbol xmlns="http://www.w3.org/2000/svg" id="Андорра" viewBox="0 0 64 64"><path fill="#2a5f9e" d="M2 32c0 11.5 6.5 21.5 16 26.5v-53c-9.5 5-16 15-16 26.5"/><path fill="#c94747" d="M62 32c0-11.5-6.5-21.5-16-26.5v53.1c9.5-5.1 16-15.1 16-26.6"/><path fill="#ffe62e" d="M32 2c-5.1 0-9.8 1.3-14 3.5v53.1c4.2 2.2 8.9 3.5 14 3.5s9.8-1.3 14-3.5V5.5C41.8 3.3 37.1 2 32 2"/><path fill="#c7b37f" d="M29.2 17c1.2 0 2 1.2 3.3.9c1-.2 2.5-1.7 3.3-.3c.3.5.2 1.1 0 1.7c-.2.5-.7 1.2-.2 1.6c.7.6 2.2.4 2.9-.3c-.6 0-1-.7-.5-1.1c.2-.2.4-.1.6-.2c.1 0 .2-.2.3-.3c.1-.1.2-.1.4-.1s.4.2.5.2c.2 0 .6-.3.8.1c.1.2.3.1.5 0c.3-.1.6.1.8.3c.2.2.3.2.6.3c.2.1.3.5.5.5c.7.3.7.8.4 1.5c-.4.9-2.5 2-1.7 3.2c-.1-.8 1.1-.4.8.3c1.6-1 3.3 1.2 3.3 2.6c0 1.4-.6 2.5-2 2.8c.4.2.8.6.5 1.1c-.1.2-.3.3-.6.3c-.4 0-.5-.3-.7.1c-.5.8-.2 2.1.5 2.7c.2-.3.7-.6 1-.2c.2.2.2.7.4.9c.2.3.4.6.1 1c-.3.4-.6.2-1 .3c.9.9 1.3 1.8.9 3.1c-.3 1.2-1.3 2.1-2.5 2.6c-1.2.4-2.5.5-3.8.5c-1.3.1-2.6.1-3.5 1c.4.3.7.7.5 1.2c-.1.2-.2.3-.4.5c-.2.1-.5.1-.7.3c-.3.5-1.1.3-1.4 0c-.2-.2-.3.1-.5.3c-.2.2-.5.5-.7.5c-.2 0-.5-.2-.6-.4c-.2-.2-.4-.5-.7-.4c-.4.2-1.1.4-1.4 0c0-.1-.2 0-.4-.1s-.4-.3-.5-.6c-.2-.5.1-1 .6-1.2c-.9-.9-2.1-.9-3.3-1c-1.3-.1-2.8 0-4-.6c-1-.5-1.9-1.2-2.4-2.2c-.5-1.2-.3-2.4.7-3.3c-.4-.1-.8-.1-1-.5c-.2-.5.2-.7.2-1.1c0-.3.4-.7.6-.8c.2-.1.5 0 .6.2c.2.2.3 0 .5-.2c.4-.7.7-1.9 0-2.6c-.8.7-1.8-.9-.8-1.4c-.3-.2-.7-.3-.9-.6c-.2-.2-.4-.5-.6-.8c-.4-.7-.4-1.5-.2-2.2c.2-.7.6-1.4 1.2-1.8c.7-.4 1.2-.3 1.9-.1c-.1 0 .1-.6.2-.7c.3-.3.6 0 .7.3c.6-1.1-1.5-2.2-1.9-3.1c-.2-.4-.3-1.4.4-1.4c.2 0 .3-.3.5-.5c.1-.1.3-.1.5-.2l.3-.3c.2-.2.5-.2.7-.2c.4 0 .2.1.5 0s.5 0 .7 0c.2 0 .3-.3.7-.2c.3.1.3.3.5.4c.2.1.4.1.6.3c.5.5.1 1-.4 1.2c.5.4 1.1.6 1.8.5c.5 0 1.4-.3 1.2-1c-.2-.8-.6-1.3-.5-2.1c.2-.8.7-1.2 1.3-1.2"/><path fill="#c94747" d="M24 23.9h7.6v7.6H24z"/><path fill="#fff" d="M27.5 29.9s0 .3-.1.5c-.1.3-.1.3-.2.4c-.1.2-.2.3-.4.4c-.2.1-.4.2-.6.2c-.5 0-.7-.6-.9-1c-.1-.5-.5-.7-.7-.6c-.1.1-.1.3 0 .4c.1.2.4.3.4.3l-.3.3s-.6-.1-.7-.7c0-.2.1-.7.5-.8c.5-.2.8.2 1 .5c.2.4.3 1.2.9 1c.3-.1.5-.5.5-.7l.2-.2zm.5 0s0 .3.1.5c.1.3.1.3.2.4c.1.2.2.3.4.4c.2.1.4.2.6.2c.5 0 .7-.6.9-1c.1-.5.5-.7.7-.6c.1.1.1.3 0 .4c-.1.2-.4.3-.4.3l.3.3s.6-.1.7-.7c0-.2-.1-.7-.5-.8c-.5-.2-.8.2-1 .5c-.2.4-.3 1.2-.9 1c-.3-.1-.5-.5-.5-.7l-.2-.2z"/><path fill="#ffce31" d="M28.5 26.7c.3-.3 1.2-.9 1.1-1.4c-.5-.1 0-.2.1-.5h-.3c.1-.4 1-.7 1.5-.6c1 .4.3 2-.5 1.3c.1-.4.7-.2.6-.6c0-.3-.4-.5-.7-.4c-.4.3-.1.9-.5 1.2c-.3.5-.9 1-1.3 1.4c-1.2 1.3-2.5 2.7-3.7 4c-.7-.4 1.1-1.8 1.4-2.1c.7-.6 1.5-1.5 2.3-2.3"/><path fill="#fff" d="M25.5 27.1s.2 1.2 1.1 3.1c.4-.2.7-.3 1.1-.3s.7.1 1.1.3c.9-1.9 1.1-3.1 1.1-3.1l-2.2-2.9z"/><path fill="#ffce31" d="m28 25.2l1.6 2s-.2 1-.8 2.4c-.2-.1-.5-.1-.7-.1zm-.5 0l-1.6 2s.2 1 .8 2.4c.2-.1.5-.1.7-.1zm4.9-1.3H40v7.6h-7.6z"/><path fill="#c94747" d="M33.5 23.9h1.1v7.6h-1.1zm2.1 0h1.1v7.6h-1.1zm2.2 0h1.1v7.6h-1.1z"/><path fill="#ffce31" d="M24 38.2c0 .1.1.4.2.6c.1.2.1.2.4.6c.2.2.4.3.6.4c.2.1.3.2.6.2c.6.2 1 .2 1.5.1c.4 0 .7-.1 1-.1c.4 0 .6-.1 1-.1h.6c.2 0 .4 0 .7.1c.5.1 1 .3 1 .3v-8H24z"/><path fill="#c94747" d="m24.9 39.6l.3.2l.5.1v-7.5h-.8zm4.2.3v-7.5h-.8V40s.5-.1.8-.1m1.7-7.5H30V40c.3 0 .6.1.8.2zm-3.4 0v7.7h-.9v-7.7z"/><path fill="#ffce31" d="M40 38.2c0 .1-.1.4-.2.6c-.1.2-.1.2-.4.6c-.2.2-.4.3-.6.4c-.2.1-.3.2-.6.2c-.6.2-1 .2-1.5.1c-.4 0-.7-.1-1-.1c-.4 0-.6-.1-1-.1h-.6c-.2 0-.4 0-.7.1c-.5.1-1 .3-1 .3v-8H40z"/><path fill="#c94747" d="M34.3 33c-.3.2-.4.5-.7.7c.2.4.6.3.9.5c.2 0 .4.6.4.7c-.3.3.1 1.2.2.9c.1-.3-.4-.9.3-.7c.2.1.3.8.1 1c.1.3.4.1.4-.2c-.1-.5 0-.8.5-.8c.6 0 .5.2.8.2h.3l.2-.2c0 .3-.4.7-.6.9c.4.2 1-.6 1-.9c.4.2.1.9-.1 1.1c1 .2.1-1.8.4-2c.9-.5-.5-.8-.9-.8c-.8 0-1.9.4-2.6.1c.2-.1.2-.2.3-.3c-.2-.2-.6 0-.9-.2m0 3.4c-.3.2-.4.5-.7.7c.2.4.6.3.9.5c.2 0 .4.6.4.7c-.3.3.1 1.2.2.9c.1-.3-.4-.9.3-.7c.2.1.3.8.1 1c.1.3.4.1.4-.2c-.1-.5 0-.8.5-.8c.6 0 .5.2.8.2h.3l.2-.2c0 .3-.4.7-.6.9c.4.2 1-.6 1-.9c.4.2.1.9-.1 1.1c1 .2.1-1.8.4-2c.9-.5-.5-.8-.9-.8c-.8 0-1.9.4-2.6.1c.2-.1.2-.2.3-.3c-.2-.2-.6 0-.9-.2"/>
</symbol>

<symbol xmlns="http://www.w3.org/2000/svg" id="Хорватія" viewBox="0 0 64 64"><path fill="#ed4c5c" d="M32 2C18.9 2 7.8 10.4 3.7 22h56.6C56.2 10.4 45.1 2 32 2"/><path fill="#428bc1" d="M32 62c13.1 0 24.2-8.3 28.3-20H3.7C7.8 53.7 18.9 62 32 62"/><path fill="#f9f9f9" d="M3.7 22C2.6 25.1 2 28.5 2 32s.6 6.9 1.7 10h56.6c1.1-3.1 1.7-6.5 1.7-10s-.6-6.9-1.7-10z"/><path fill="#fff" d="m42.9 25.2l2.6-6l-2-3.2l-3.3 1.2l-2.3-2.7l-3.1 1.8L32 14l-2.8 2.3l-3.1-1.8l-2.3 2.7l-3.3-1.2l-2 3.3l2.6 6c3.3-1.5 7-2.3 10.9-2.3c3.9-.2 7.6.7 10.9 2.2"/><path fill="#428bc1" d="M34.7 16.5L32 14.3l-2.7 2.2l.5 6.2c.7-.1 1.5-.1 2.2-.1c.7 0 1.5 0 2.2.1z"/><path fill="#ed4c5c" d="M32 50c6.2 0 11.3-5.1 11.3-11.3V25.3H20.7v13.4C20.7 44.9 25.8 50 32 50"/><path fill="#fff" d="M32 49.8c6.1 0 11.1-5 11.1-11.1V25.5H20.9v13.2c0 6.1 5 11.1 11.1 11.1"/><g fill="#ed4c5c"><path d="M25.6 25.9h-4.3v4.7h4.3zm0 9.4h4.3v-4.7h-4.3zm-4.3 3.4c0 .4 0 .8.1 1.3h4.2v-4.7h-4.3zm12.8-3.4h-4.3V40h4.3zm0 9.4h4.3V40h-4.3zm4.3 2.5c.9-.7 1.8-1.6 2.4-2.6h-2.4zm-12.8-2.5h4.3V40h-4.3zm-2.4 0c.7 1 1.5 1.8 2.4 2.6v-2.6z"/><path d="M32.7 49.3c.5 0 .9-.1 1.4-.2v-4.5h-4.3v4.5c.5.1.9.2 1.4.2c.5.1 1 .1 1.5 0m9.9-9.3c0-.4.1-.8.1-1.3v-3.4h-4.3V40zm-8.5-4.7h4.3v-4.7h-4.3zm0-9.4h-4.3v4.7h4.3z"/><path d="M42.6 30.6v-4.7h-4.3v4.7z"/></g><path fill="#428bc1" d="m23.9 17.4l-3.3-1.2l-1.9 3l.7 1.6l1.8 4.1c1.3-.6 2.7-1.1 4.2-1.4z"/><path fill="#fff" d="M23.7 20.4c.1.2.2.5.2.8c0 .9-.7 1.6-1.6 1.6c-.8 0-1.4-.6-1.6-1.3c.3.5.8.8 1.4.8c.9 0 1.6-.7 1.6-1.6z"/><path fill="#ffe62e" d="M22.2 18.1v.1l-.1.6l.5.3v.1h-.1l-.5.2l-.1.5v.1l-.1-.1l-.4-.3l-.6.2v-.1l.1-.5l-.4-.4v-.1l.6-.2l.1-.5v-.1v.1l.4.3l.6-.1z"/><path fill="#2a5f9e" d="m29.3 16.5l-3.1-1.7l-2.3 2.6l1.5 6c1.4-.4 2.9-.6 4.4-.7z"/><path fill="#ed4c5c" d="M25 21.9c1.5-.4 3-.6 4.6-.8l-.1-1.6c-1.7.1-3.3.4-4.9.8zm-.7-3c1.7-.4 3.4-.7 5.1-.9l-.1-1.5c-1.8.2-3.6.5-5.4.9z"/><path fill="#ffe62e" d="M32 19.3c-.2 0-.5.7-.9.2c0 0 .3.4.3.6l-.3-.1c0 2.1 1.9 2 1.9 0l-.3.1c0-.1.3-.6.3-.6c-.5.5-.7-.1-1-.2m1.2-2.9c-.2 0-.5.7-.9.2c0 0 .3.4.3.6l-.3-.1c0 2.1 1.9 2 1.9 0l-.3.1c0-.1.3-.6.3-.6c-.4.5-.7-.2-1-.2m-2.5 0c-.2 0-.5.7-.9.2c0 0 .3.4.3.6l-.3-.1c0 2.1 1.9 2 1.9 0l-.3.1c0-.1.3-.6.3-.6c-.4.5-.7-.2-1-.2"/><path fill="#2a5f9e" d="m40.1 17.4l-2.3-2.7l-3.1 1.8l-.5 6.2c1.5.1 3 .4 4.4.7z"/><path fill="#ffe62e" d="M35.3 17.8h.3c.2.1.2 0 .3-.1c.2-.1.8-.2 1.4.1c.1.1.7.1.7.1s-.5.2-1 0c.2.1.3.3.5.4c.1 0 .8.2.8.2s-.6.3-1 0c-.3-.3-.6-.6-1.1-.5l.3.1c-.1.1-.4.2-.5.1c0 .3 1 1.3 2.2 1c.5-.2.2.2.1.4c-.1.1-.5 2.3-1.6 1.8c0 0 .6-.2.6-.6l-.2-.2c-.4 0-.7 1.2-1.2.6c0 0 .6-.3.5-.8H36c-.3.1-.2 1.2-.8.9c0 0 .7-1 .3-1c-.1.2-.3.4-.3.6c.2.2-.5.2-.4 0c0-.1.5-.6.4-1.1c-.2-.1 0-1 .1-1.2c-.6 0-.2-.2-.1-.6c.2 0 .1 0 .1-.2"/><path fill="#428bc1" d="m42.8 24.9l2.5-5.7l-1.9-3l-3.3 1.2l-1.5 6c1.4.4 2.8.9 4.2 1.5"/><path fill="#fff" d="M39.6 19.6c1.7.4 3.3 1 4.8 1.7l-1 2.2c-1.4-.6-2.9-1.1-4.4-1.5z"/><path fill="#ed4c5c" d="m43.5 23.1l.6-1.5c-1.5-.7-3.1-1.2-4.7-1.6l-.4 1.5c1.6.4 3.1.9 4.5 1.6"/><path fill="#ffe62e" d="m42 17.4l.1.6l-.4.4l.6.2l.1.6l.5-.4l.6.2l-.1-.6l.4-.4l-.6-.2l-.1-.6l-.4.4z"/>
</symbol>

<symbol xmlns="http://www.w3.org/2000/svg" id="Куба" viewBox="0 0 64 64"><path fill="#f9f9f9" d="M10.8 26h50.6c-.9-4.4-2.8-8.5-5.4-12H10.8zm0 12v12H56c2.6-3.5 4.5-7.6 5.4-12z"/><path fill="#428bc1" d="M61.4 26H10.8v12h50.6c.4-1.9.6-3.9.6-6s-.2-4.1-.6-6M10.8 14H56C50.5 6.7 41.8 2 32 2c-8.3 0-15.8 3.4-21.2 8.8zm0 36v3.2C16.2 58.6 23.7 62 32 62c9.8 0 18.5-4.7 24-12z"/><path fill="#ed4c5c" d="M10.8 10.8C5.4 16.2 2 23.7 2 32s3.4 15.8 8.8 21.2L32 32z"/><path fill="#f9f9f9" d="m10 38l4-2.8l4 2.8l-1.5-4.6l4-2.9h-5L14 26l-1.5 4.5h-5l4 2.9z"/>
</symbol>

<symbol xmlns="http://www.w3.org/2000/svg" id="Домініканська Республіка" viewBox="0 0 64 64"><path fill="#c94747" d="M38 2.6V26h23.4C59 14.2 49.8 5 38 2.6M26 61.4V38H2.6C5 49.8 14.2 59 26 61.4"/><path fill="#2a5f9e" d="M38 38v23.4C49.8 59 59 49.8 61.4 38zM2.6 26H26V2.6C14.2 5 5 14.2 2.6 26"/><path fill="#f9f9f9" d="M61.4 26H38V2.6c-1.9-.4-3.9-.6-6-.6s-4.1.2-6 .6V26H2.6c-.4 1.9-.6 3.9-.6 6s.2 4.1.6 6H26v23.4c1.9.4 3.9.6 6 .6s4.1-.2 6-.6V38h23.4c.4-1.9.6-3.9.6-6s-.2-4.1-.6-6"/><path fill="#699635" d="M29 29.3s-.4-.1-.8-.1c.3-.4.4-1.2.4-1.2s-.7.4-.9.8c-.1-.3-.4-.6-.4-.6s-.3.4-.3.7c0 .3.5.8.5.8s.6.2 1 .1c.3 0 .5-.5.5-.5"/><path fill="#83bf4f" d="M28.4 30.3s-.4 0-.8.1c.1-.5 0-1.2 0-1.2s-.5.5-.7 1l-.5-.5s-.2.4-.1.7c.1.3.7.7.7.7s.7 0 1-.2c.3-.1.4-.6.4-.6"/><path fill="#699635" d="M28.1 31.4s-.4.1-.7.3c0-.5-.3-1.2-.3-1.2s-.4.7-.4 1.1c-.3-.2-.6-.3-.6-.3s-.1.5.1.7c.2.3.8.5.8.5s.6-.2.9-.4c.2-.3.2-.7.2-.7"/><path fill="#83bf4f" d="M28 32.5s-.4.2-.6.4c-.1-.5-.6-1.1-.6-1.1s-.2.7-.1 1.2c-.3 0-.7-.1-.7-.1s0 .5.3.7c.3.2.9.3.9.3s.6-.3.7-.6c.3-.3.1-.8.1-.8"/><path fill="#699635" d="M28.3 33.6s-.3.3-.5.6c-.2-.4-.8-.9-.8-.9s0 .8.2 1.2h-.7s.1.4.5.6c.3.1 1 0 1 0s.5-.5.6-.8c-.1-.3-.3-.7-.3-.7"/><path fill="#83bf4f" d="M28.8 34.6s-.2.4-.3.7c-.3-.4-1-.6-1-.6s.2.7.5 1.1c-.3.1-.7.2-.7.2s.3.4.6.4s.9-.2.9-.2s.3-.6.3-.9c.1-.4-.3-.7-.3-.7"/><path fill="#699635" d="M29.6 35.5s-.1.4-.1.7c-.4-.3-1.2-.3-1.2-.3s.4.6.8.9c-.3.1-.6.4-.6.4s.4.3.7.3c.3 0 .8-.5.8-.5s.2-.6.1-1c-.1-.3-.5-.5-.5-.5"/><path fill="#83bf4f" d="M30.6 36.1s0 .4.1.8c-.5-.1-1.2 0-1.2 0s.5.5 1 .7l-.5.5s.4.2.7.1c.3-.1.7-.7.7-.7s0-.7-.2-.9s-.6-.5-.6-.5"/><path fill="#699635" d="M35.1 29.3s.4-.1.8-.1c-.3-.4-.4-1.2-.4-1.2s.7.4.9.8c.1-.3.4-.6.4-.6s.3.3.3.7c0 .3-.5.8-.5.8s-.6.2-1 .1s-.5-.5-.5-.5"/><path fill="#83bf4f" d="M35.7 30.3s.4 0 .8.1c-.2-.5 0-1.2 0-1.2s.5.5.7 1l.5-.5s.2.4.1.7c-.1.3-.7.7-.7.7s-.7 0-1-.2c-.3-.1-.4-.6-.4-.6"/><path fill="#699635" d="M36 31.4s.4.1.7.3c0-.5.3-1.2.3-1.2s.4.7.4 1.1c.3-.2.6-.3.6-.3s.1.5-.1.7c-.2.3-.8.5-.8.5s-.6-.2-.9-.4c-.2-.3-.2-.7-.2-.7"/><path fill="#83bf4f" d="M36.1 32.5s.4.2.6.4c.1-.5.6-1.1.6-1.1s.2.7.1 1.2c.3-.1.7-.1.7-.1s0 .5-.3.7c-.3.2-.9.3-.9.3s-.6-.3-.7-.6c-.3-.3-.1-.8-.1-.8"/><path fill="#699635" d="M35.8 33.6s.3.3.5.6c.2-.4.8-.9.8-.9s0 .8-.2 1.2h.7s-.1.4-.5.6c-.3.1-1 0-1 0s-.5-.5-.6-.8s.3-.7.3-.7"/><path fill="#83bf4f" d="M35.3 34.6s.2.4.3.7c.3-.4 1-.6 1-.6s-.2.7-.5 1.1c.3.1.7.2.7.2s-.3.4-.6.4s-.9-.2-.9-.2s-.3-.6-.3-.9c-.1-.4.3-.7.3-.7"/><path fill="#699635" d="M34.5 35.5s.1.4.1.7c.4-.3 1.2-.3 1.2-.3s-.4.6-.8.9c.3.1.6.4.6.4s-.4.3-.7.3c-.3 0-.8-.5-.8-.5s-.2-.6-.1-1c.1-.3.5-.5.5-.5"/><path fill="#83bf4f" d="M33.5 36.1s0 .4-.1.8c.5-.1 1.2 0 1.2 0s-.5.5-1 .7l.5.5s-.4.2-.7.1c-.3-.1-.7-.7-.7-.7s0-.7.2-.9c.2-.5.6-.5.6-.5"/><path fill="#fff" d="M29 29.1v4.8c0 .4 0 .7.2 1c.2.2.4.4.7.5h1.2c.6 0 .6.1.8.4c.2-.4.5-.4 1-.4h1c.3-.1.5-.2.6-.4c.3-.3.3-.7.3-1.1v-4.6c0-.2 0-.2.1-.3l.7-.7h-7.4z"/><path fill="#002d62" d="M31.3 31.2v-2.9h-3l.8.8v2.1z"/><path fill="#ce1126" d="M32.6 31.2v-2.9h3.1l-.8.8v2.1zm-1.3 1.2H29v1.9c.1.8.7 1.1 1.2 1.1h1.1z"/><path fill="#002d62" d="M32.6 32.4h2.3v1.9c-.1.8-.7 1.1-1.2 1.1h-1.1zm-2.4-6.5c-.9 0-1.9.2-2.6.7c-.4.2-.4.3-.2.7l-.5.2c-.3.1-.6.2-.9.4c-.2.1-.2.2-.3.3l.7-.1l-.1.2c-.1.2-.2.3-.3.5c.2-.1.4-.3.6-.4c.5-.3 1.5-.3 1.9-.7c.1-.1 0-.2 0-.4c.3-.1.4-.2.7-.2c.9-.2 1.4 0 1.8-.1c.1 0 .3-.1.3-.2l-.1-.4h1.4c0 .2-.2.6.2.7c.4.1 1.2-.1 1.8.1l.7.2l-.1.2v.2c.1.1.2.2.3.2c.2.1.5.2.8.3c.8.2.9.2 1.5.6c0-.1-.3-.5-.4-.7l.7.1c-.1-.2-.5-.4-.7-.5l-.9-.3c.1-.2.2-.3.1-.4c-.1-.2-.9-.6-1.1-.6c-.3-.1-.7-.2-1-.2c-.3-.1-.9-.1-.9-.1s.1-.3-.1-.5c-.1-.1-.3-.1-.5-.1c-.7-.1-1.6 0-2.3 0c-.2 0-.3 0-.5.1z"/><path fill="#ce1126" d="M29 36.8c-.4.1-.6.2-1 .4c-.1-.2-.3-.5-.5-.7l-.3-.3c-.2-.1-.3-.1-.4 0l-.1-.2c-.2-.3-.4-.5-.6-.7l-.1-.1l-.1-.1c.1.3.1.5.2.8c-.1-.1-.2-.1-.3-.2c-.1 0-.3-.1-.4-.1l.1.1c.2.2.4.5.5.8c.1.3.3.7.6.9c0 0 .2.2.3.2c.3.1.3 0 .4-.1c.2.4.3.5.6.8c.3.3.7.3 1 .3c.2 0 .3-.1.4-.2c.5-.3.2-.5.2-.7c.2 0 .8-.2 1-.3c.8-.1 2.2-.2 3.1 0c.1 0 1 .3 1.1.3c-.1.2-.1.2-.1.4s.2.2.3.3c.1.1.2.1.4.2h.5c.3-.1.5-.3.7-.4c.2-.3.3-.5.5-.7l.1.1h.2c.1 0 .2-.1.3-.2c.3-.2.5-.6.6-.9c.1-.4.3-.6.6-.9c-.4 0-.5.1-.7.2l.1-.4c0-.1.1-.3.1-.4c-.2.2-.3.4-.5.6c-.1.1-.2.2-.2.3c-.2.2-.1.2-.2.3c-.5-.3-.8.4-1.2.9c-.7-.4-1.3-.5-2.1-.7c-.2 0-.3 0-.5-.1c-1-.1-2.1-.1-3.1 0c-.7.3-1.1.4-1.5.5"/><path fill="#eac102" d="M31.7 28.1v.6H31v.6h.7v2.4h.6v-2.4h.6v-.6h-.6v-.6z"/><path fill="#201b18" d="m29.9 32.2l2.7-1.6l1.5 2.1l-2.9 1.9z"/><path fill="#c9c9c9" d="m30.2 31.7l2.3-1.3l1.2 1.7l-2.4 1.6z"/>
</symbol>

<symbol xmlns="http://www.w3.org/2000/svg" id="Грузія" viewBox="0 0 64 64"><path fill="#f9f9f9" d="M38 2.6H26C14.3 5 5 14.2 2.6 26v12C5 49.8 14.3 59 26 61.4h12C49.8 59 59 49.7 61.4 38V26C59 14.2 49.7 5 38 2.6"/><g fill="#ed4c5c"><path d="M38 26V2.6c-1.9-.4-3.9-.6-6-.6s-4.1.2-6 .6V26H2.6c-.4 1.9-.6 3.9-.6 6s.2 4.1.6 6H26v23.4c1.9.4 3.9.6 6 .6s4.1-.2 6-.6V38h23.4c.4-1.9.6-3.9.6-6s-.2-4.1-.6-6z"/><path d="M18 20h-4l1-6l-1-6h4l-1 6z"/><path d="M10 16v-4l6 1l6-1v4l-6-1zm40 4h-4l1-6l-1-6h4l-1 6z"/><path d="M42 16v-4l6 1l6-1v4l-6-1zM18 56h-4s1-4.5 1-6s-1-6-1-6h4s-1 4.5-1 6s1 6 1 6"/><path d="M10 52v-4l6 1l6-1v4l-6-1zm40 4h-4l1-6l-1-6h4l-1 6z"/><path d="M42 52v-4l6 1l6-1v4l-6-1z"/></g>
</symbol>

<symbol xmlns="http://www.w3.org/2000/svg" id="Індія" viewBox="0 0 64 64"><path fill="#f2b200" d="M31.8 2c-13 0-24.1 8.4-28.2 20h56.6C56 10.4 44.9 2 31.8 2"/><path fill="#83bf4f" d="M31.8 62c13.1 0 24.2-8.3 28.3-20H3.6c4.1 11.7 15.2 20 28.2 20"/><path fill="#fff" d="M3.6 22c-1.1 3.1-1.7 6.5-1.7 10s.6 6.9 1.7 10h56.6c1.1-3.1 1.7-6.5 1.7-10s-.6-6.9-1.7-10z"/><circle cx="31.8" cy="32" r="8" fill="#428bc1"/><circle cx="31.8" cy="32" r="7" fill="#fff"/><g fill="#428bc1"><circle cx="29.2" cy="25.5" r=".5"/><circle cx="27.6" cy="26.4" r=".5"/><circle cx="26.3" cy="27.7" r=".5"/><circle cx="25.4" cy="29.3" r=".5"/><circle cx="24.9" cy="31.1" r=".5"/><circle cx="24.9" cy="32.9" r=".5"/><circle cx="25.4" cy="34.7" r=".5"/><circle cx="26.3" cy="36.3" r=".5"/><circle cx="27.6" cy="37.6" r=".5"/><circle cx="29.2" cy="38.5" r=".5"/><circle cx="30.9" cy="38.9" r=".5"/><path d="M32.3 39c0-.3.2-.5.4-.6c.3 0 .5.2.6.4c0 .3-.2.5-.4.6c-.4.1-.6-.1-.6-.4"/><circle cx="34.5" cy="38.5" r=".5"/><circle cx="36.1" cy="37.6" r=".5"/><circle cx="37.4" cy="36.3" r=".5"/><circle cx="38.3" cy="34.7" r=".5"/><circle cx="38.8" cy="32.9" r=".5"/><path d="M38.8 31.6c-.3 0-.5-.2-.6-.4c0-.3.2-.5.4-.6c.3 0 .5.2.6.4c.1.3-.1.5-.4.6"/><circle cx="38.3" cy="29.3" r=".5"/><circle cx="37.4" cy="27.7" r=".5"/><circle cx="36.1" cy="26.4" r=".5"/><path d="M35 25.7c-.1.3-.4.4-.7.3c-.3-.1-.4-.4-.3-.7c.1-.3.4-.4.7-.3c.3.2.4.5.3.7m-1.8-.6c0 .3-.3.5-.6.4c-.3 0-.5-.3-.4-.6c0-.3.3-.5.6-.4c.3.1.5.4.4.6m-1.8-.1c0 .3-.2.5-.4.6c-.3 0-.5-.2-.6-.4c0-.3.2-.5.4-.6c.3-.1.6.1.6.4"/><circle cx="31.8" cy="32" r="1.5"/><path d="m31.8 25l-.2 4.3l.2 2.7l.3-2.7zm-1.8.2l.9 4.3l.9 2.5l-.4-2.7z"/><path d="m28.3 25.9l2 3.9l1.5 2.2l-1.1-2.5zM26.9 27l2.9 3.3l2 1.7l-1.7-2.1z"/><path d="m25.8 28.5l3.6 2.4l2.4 1.1l-2.2-1.6z"/><path d="m25.1 30.2l4.1 1.3l2.6.5l-2.5-.9zm-.3 1.8l4.4.2l2.6-.2l-2.6-.2z"/><path d="m25.1 33.8l4.2-.9l2.5-.9l-2.6.5zm.7 1.7l3.8-1.9l2.2-1.6l-2.4 1.1z"/><path d="m26.9 36.9l3.2-2.8l1.7-2.1l-2 1.7zm1.4 1.2l2.4-3.7l1.1-2.4l-1.5 2.2z"/><path d="m30 38.8l1.4-4.1l.4-2.7l-.9 2.5zm1.8.2l.3-4.3l-.3-2.7l-.2 2.7zm1.8-.2l-.8-4.3l-1-2.5l.5 2.7z"/><path d="m35.3 38.1l-1.9-3.9l-1.6-2.2l1.2 2.5zm1.5-1.2l-2.9-3.2l-2.1-1.7l1.8 2.1z"/><path d="m37.9 35.5l-3.6-2.4l-2.5-1.1l2.2 1.6zm.7-1.7l-4.1-1.3l-2.7-.5l2.6.9zm.2-1.8l-4.3-.3l-2.7.3l2.7.2zm-.2-1.8l-4.2.9l-2.6.9l2.7-.5z"/><path d="M37.9 28.5L34 30.4L31.8 32l2.5-1.1zm-1.1-1.4l-3.2 2.8l-1.8 2.1l2.1-1.7z"/><path d="M35.3 25.9L33 29.6L31.8 32l1.6-2.2z"/><path d="m33.7 25.2l-1.4 4.1l-.5 2.7l1-2.5z"/></g>
</symbol>

<symbol xmlns="http://www.w3.org/2000/svg" id="Ізраїль"  viewBox="0 0 64 64"><path fill="#f9f9f9" d="M52.1 10c-5.4-5-12.5-8-20.4-8s-15 3-20.4 8zM11.3 54c5.4 5 12.5 8 20.4 8s15-3 20.4-8zM1.7 32c0 4.3.9 8.3 2.5 12h55c1.6-3.7 2.5-7.7 2.5-12s-.9-8.3-2.5-12h-55c-1.6 3.7-2.5 7.7-2.5 12"/><path fill="#428bc1" d="M11.4 54h40.7c3-2.8 5.5-6.2 7.1-10h-55c1.7 3.8 4.2 7.2 7.2 10m40.7-44H11.4c-3 2.8-5.5 6.2-7.1 10h55c-1.7-3.8-4.2-7.2-7.2-10M40.7 27h-6l-3-5l-3 5h-6l3 5l-3 5h6l3 5l3-5h6l-3-5zm-9-2.1L33 27h-2.5zm-6.3 3.6h2.5l-1.2 2.1zm0 7l1.2-2.1l1.2 2.1zm6.3 3.6L30.5 37H33zm2.2-3.6h-4.2L27.5 32l2.1-3.5h4.2L36 32zm4.2 0h-2.5l1.2-2.1zm-1.2-5l-1.2-2.1h2.5z"/>
</symbol>

<symbol xmlns="http://www.w3.org/2000/svg" id="Мальдіви" viewBox="0 0 64 64"><path fill="#699635" d="M2 32c0 9.8 4.7 18.5 12 24h36c7.3-5.5 12-14.2 12-24S57.3 13.5 50 8H14C6.7 13.5 2 22.2 2 32"/><path fill="#ed4c5c" d="M14 8h36c-5-3.8-11.2-6-18-6S19 4.2 14 8m18 54c6.8 0 13-2.2 18-6H14c5 3.8 11.2 6 18 6"/><path fill="#fff" d="M43 49.6C34.6 48 28.3 40.7 28.3 32S34.6 16 43 14.4c-1.2-.2-2.4-.4-3.7-.4C29.2 14 21 22.1 21 32s8.2 18 18.3 18c1.3 0 2.5-.1 3.7-.4"/>
</symbol>

<symbol xmlns="http://www.w3.org/2000/svg" id="Мексика"  viewBox="0 0 64 64"><path fill="#ed4c5c" d="M62 32c0-13.1-8.3-24.2-20-28.3v56.6C53.7 56.2 62 45.1 62 32"/><path fill="#75a843" d="M2 32c0 13.1 8.4 24.2 20 28.3V3.7C10.4 7.8 2 18.9 2 32"/><path fill="#fff" d="M42 3.7C38.9 2.6 35.5 2 32 2s-6.9.6-10 1.7v56.6c3.1 1.1 6.5 1.7 10 1.7s6.9-.6 10-1.7z"/><path fill="#75a843" d="M40.7 31.7c-.1-.3-.2.1-.2.2c0-.3-.1-.5-.3-.8c-.3.3-.4.7-.4 1.1c-.1-.3-.2-.6-.5-.7c.2.3.1.5.1.8c0 .4.3.7.3 1.1c0 .4-.2.7-.5 1v-.3c-1 .4-.8.9-.8 1.8s-.5.7-1.1 1.2c.1-.2.1-.5 0-.7c0 .6-.8.6-.9 1.1c-.1.2 0 .6-.3.7c-.2.1-.5.3-.5.5c-.2-.1-.4-.1-.7-.1c.1-.1.2-.1.3-.2c-1-.5-1.3.6-2.2.7c-.3 0-1-.4-1 0c.9 0 1.3.8 2 .8c.6 0 1.1-.5 1.7-.5c-.1 0-.4-.2-.7-.2c.5-.3.8-.9 1.4-.9c1 0 1.5-.2 1.8-1.2c-.1 0-.2 0-.3.1c0-.4.4-.9.8-1.1c1-.2.9-1 1.5-1.7c-.2 0-.4.1-.6.3c0-.6-.1-1.2.4-1.6c1-.5.9-.7.7-1.4m-17.4 0c-.2.8-.3 1 .5 1.5c.6.4.4 1 .4 1.6c-.2-.2-.3-.3-.6-.3c.6.6.5 1.5 1.5 1.7c.3.2.8.7.8 1.1c-.1 0-.2-.1-.3-.1c.3 1 .8 1.2 1.8 1.2c.6 0 .9.6 1.4.9c-.3 0-.6.1-.7.2c.6 0 1.1.6 1.7.5c.7 0 1.2-.8 2-.8c0-.4-.7 0-1 0c-.8-.2-1.1-1.2-2.2-.8c.1.1.2.2.3.2c-.2 0-.5-.1-.7.1c-.1-.2-.3-.4-.5-.5c-.2-.2-.2-.5-.3-.7c-.2-.5-.9-.6-.9-1.1c-.1.2-.1.5 0 .7c-.6-.5-1.1-.3-1.1-1.2c0-.8.2-1.4-.8-1.8v.3c-.3-.3-.5-.5-.5-1c0-.4.4-.7.3-1.1c0-.3-.1-.5.1-.8c-.3.1-.4.4-.5.7c0-.4-.1-.8-.4-1.1c-.1.2-.2.5-.3.8c.1-.2 0-.5 0-.2m2.3 5"/><path fill="#428bc1" d="M34.7 37.7c-.2 0-.3-.2-.4-.3c0-.2.8-.4.9-.4v-.2c-1.3.4-5.2.7-6-.7c-.4.6-1.1.2-1.8-.3c.1.2.5 1.2.5 1.1c.2.1 1.5.4 1.5.7l-.3.3c2.1.7 3.4.9 5.6-.2"/><path fill="#ed4c5c" d="M33.4 37.7c.1-.1.1-.2.1-.4l-.1-.3c.2-.2 0-.7-.3-.6c-.2.1-.1.1-.3 0c-.1 0-.1-.1-.2-.1h-1.8c-.2 0-.2-.1-.4-.1c-.2-.1-.3.1-.4.2c0 .2.1.2.1.3c0 .1-.1.2-.1.4s.1.3.2.4c-.4.3 0 .8.4.5c.1.2.4.2.7.2h1.1c.2 0 .6.1.7-.2c.3.5.7-.1.3-.3"/><path fill="#428bc1" d="M36.6 35.1c-.8-1-1.2.5-2.1.4c.2-1.2-1.6-.8-2.1-.5c.1-.1.2-.3.3-.5c-.4 0-.9.2-1.2-.1c-.6-.4-1.4-.6-1.9.1c-.4-.6-1.5-1.2-2.1-.6c0-.6-.6-1.5-1.3-1.4c-.8.1-.5 1.1-.1 1.5c.3.3.7.4 1.1.4c0 .2.1.3.2.4c.5.4 1.5.5 2 .1c0 1 2 1 2.5.5c-.2.5-.4 1.5.3 1.5c.6 0 .4-.6.9-.8c.4-.2.9-.3 1.3-.1c.7.4 2.9.3 2.2-.9"/><g fill="#75a843"><path d="M28.4 32.6c-.1-.2-.3-.4-.3-.4c-.4.1-.4-.2-.5-.5c-.1-.5-.8-.7-.8-1.1c0-.4.4-.8.1-1.2c-.3-.4-.8-.6-.8-.4c-.1.2.4.2.4.7c0 .6-.6 1.1.1 1.6c.4.6.4 1.7 1.1 1.7c.3 0 .6-.1.7-.4"/><path d="M29.9 32.1c-.2-.4 0-1-.4-1.3c-.5-.4-1.5.4-1.6-.6c0-.2 1.1-1.4 1.3-1.5c.3-.4.2-1.1-.1-1.3c-.4-.2-.5 0-.8.4c.1.1.5.3.5.4c-.3.7-1.2.8-1.4 1.5c-.2.5-.1 1.3.4 1.6c.3.2.5.2.8.2c.9-.1.4.1.5.3c0 .2.3.9.8.3m-3-4.9c0 .6.6.5 1 .4c0-.2 0-.4.1-.6c-.2.1-.5.1-.6 0c-.3-.2.7-.6.6-.6c0 0-1 .5-.6-.1c.1-.2.3-.4.4-.6c.1-.2-.3 0-.3 0c-.1 0-.2 0-.3.1c-.6.5-.4.8-.3 1.4"/></g><path fill="#89664c" d="M37.5 27.2c-.5-.7-2.4-3-5.1-3.2c-.3 0-1.1.3-1.4.4c-.9.6 1 1.1 1.1 1.5c0 .2.1.3.1.5c-.3-.5-.6-.8-.7-1c-.5.2-1.3-.1-1.4-.6c-.1.2-.1.3-.3.5c0-.3-.1-.3-.2-.5c0 .3 0 .7-.3.8c.1-.2 0-.4-.1-.6c0 .3 0 .5-.2.7c.1-.2-.1-.3-.1-.5c-.1.8-1.2 1.1-.1 1.4c.4.1.6 0 1 .2c.1.1.3.3.3.2c0 .1-.4.5-.1.6c-.1.1-.4.7-.4.7c.3 0 .1.2-.1.4c-.3.5 0 1 .1 1.6c0-.2.3.1.3.4c0 .4.4.6.5.9c-.5-.5-.6 0 0 .3c-.5 0-.6.3-.1.5c-1.2 0-.2.5 0 .6c.8.2 1.4-.4 1.4-.5c0 0 1.6 1.6 1.7 1.6c.1 0 .9-.4 1.1-.2c.2.3.4 0 .6.1c.2.2 1 0 1.2-.1c.1 0 1.1-.2.9-.4c-.5-.4-1.1-.8-1.6-1.2c-.5-.4-1-.7-1.4-1.1c-.2-.2-.2-.6-.3-.9c.9.9 1.8 1.4 1.7-.3c.6.5 1.8 3.3 1.9 3.3c.3 0 0-3 0-3.3c.4.4.4 3.7.5 3.7c.5.1 1.2-4.3-.5-6.5"/><path fill="#ffce31" d="M30.3 32.3c-.1 0-.6-.7-.6-.8c.3 1.2-.9.5-.6 0c-.4-.1-1.4.5-1 1.1c-.2.4 1.4.1 1.5-.1c.4.9 1.4-.1.7-.2m4.7 3c.5-.7-1.6-.9-1.4-1.7c-.3.2-.7.9-1.1.7c-.2-.1-1 .4-.6.7c0-.4.2-.1.5-.2c-.1.3-.4.6.1.8c-.2-.6.6-.3.5-.6c-.2-.2.7-.2.8-.2c.3 0 1.3.3.9.6c0 0 .2 0 .3-.1m-6.7-8.6c-.1.2-.5.5-.5.8c0 .2.5.7.7.4c-.6-.4.1-.7.4-.7c.1 0 .1.2.1.2c.1.1.9-.2.8-.4c.1-.4-1.2-.4-1.5-.3m0 0"/>
</symbol>

<symbol xmlns="http://www.w3.org/2000/svg" id="Чорногорія" viewBox="0 0 64 64"><circle cx="32" cy="32" r="30" fill="#ffce31"/><circle cx="32" cy="32" r="27" fill="#ed4c5c"/><path fill="#ffce31" d="m45.6 31.3l2.5-1.2l1.1-1.6l-.1-.4l-1.4 1l-1.2.5h-.2l1.7-1l1.1-2.1l-.2-.4l-1.2 1.3l-1.3.9h-.1l2.1-2.5l.4-2l-.2-.1l-1.4 2.3l-.6.6l-.1-.1l1.2-2l.4-2.1l-.3-1.3l-.2-.1l-.8 2.4l-.8 1.4l-.1-.1l.9-3.6l-.3-2.7l-.4-.4l-.3 2.5l-.7 2.2l-.1-.1l.3-1.6l-.1-3l-.8-1.5l-.6 4.6l-.3.1l-.9 2.5l-.9 1.3l-.2-.4h-.2l-1.2 1.9l-1.2 2l.8 1.3l.5.8l-.8.5l-1 .1l-.3.5l-.4.3h-.1l.6-2.5l-1.9-2.2l-.3.1v-.2l-.3-1h.5v-.4L36 25l.1-.3l.4.3l.2-.4l.4-.8l.6.2l1.2-.4l.4-.4l1.2.3l1.3-.6l-.1-1.1h-.2l-.3.8l-.9.1l-1.2-.1l-.5.1l.8-.5l.8.2h.3l-.1-1l-.9-.4l-.5.1l-.7-.7l-1.8.4h-.8l-.7-.4l.1-.5l.2-.1l.1-.2l-.2-.3l.4-.5l.4-.2h.3l.1-.1l.2-.2v-.6l.1-.3v-.1l.1-.3l-.2-.3h-.1l-.1-.3l-.2-.2V16l-.2-.3h-.2l-.5-.3l-.2-.1l-.1-.2l-.2-.1h-.1l-.7-.3l-.2-.1l-.7-.3l-.2-.1l.2-.5l-.4-.6l-.3-.1v-.2h.4v-.6h-.4l.1-.4h-.7l.1.4h-.4v.6h.4v.2l-.3.1l-.3.6l.2.5l-.2.1l-.7.3l-.2.1l-.8.2h-.1l-.2.1l-.1.2l-.2.1l-.5.3h-.2l-.2.3v.2l-.2.2l-.1.3h-.1l-.2.3l.1.3v.1l.1.3v.6l.2.2l.1.1h.3l.4.2l.4.5l-.2.3l.1.2l.2.1l.1.5l-.7.4h-.8l-1.8-.5l-.7.7l-.5-.1l-.9.4l-.1 1h.3l.8-.2l.8.5l-.5-.1l-1.2.1l-.9-.1l-.3-.8h-.2l-.1 1.1l1.3.6L25 23l.4.4l1.2.4l.6-.2l.4.8l.2.4l.4-.3l.1.3l-.1.9v.4h.5l-.3 1l-.1.1l-.3-.1l-2 2.3l.6 2.5h-.1l-.4-.3l-.3-.5l-1-.1l-.8-.4l.5-.8l.8-1.3l-1.2-2l-1.2-1.9h-.2l-.2.4l-.9-1.3l-.9-2.5l-.3-.1l-.6-4.6L19 18l-.2 2.8l.3 1.6l-.1.1l-.7-2.2l-.2-2.3l-.4.6l-.3 2.7l.9 3.6l-.1.1l-.9-1.6l-.8-2.4l-.2.1l-.3 1.3l.4 2.1l1.2 2l-.1.1l-.5-.8l-1.4-2.3l-.2.1l.4 2l2.1 2.5h-.1l-1.3-.9l-1.2-1.3l-.2.4l1.1 2.1l1.7 1h-.2l-1.2-.5l-1.4-1l-.1.6l1.1 1.6l2.5 1.2l.1.1l-.9-.2l-2.2-.9l-.3.1l1.1 1.7l2.2.6l.1.1l-1.1-.1l-1.4-.4l-.1-.3h.1l-.2.1l-.2-.1v-.4l-.1-.1l-.6.3l.1.3l.2.3l-.5.1l-.1.2l.2.6h.1l.4-.2l.1.5l-.3.2l.1.4l.7.7l.5 2.8l1.2 2.2l.1.2l-.1.5l.4.5l.1.2v.9l.6 1.3l.1.2l-.2.1l-.4.5v.6l.4.5l-.1.2l.3.6l.5.2v.3l.4.3h.5l.3.1v1.2l.4-.1l.4.1l.5.2v-.3l.1-.5l.5-.1l.2-.2l-.4-.2l-.5-.4l-.1-.2l.1-.2v-.2l.2-.2l.3-.3l.4-.6l.5-.4l.7-.6l.8-.4l.1.5l1-.6L27 43l.3.4l1.1-1.1l1.7-1.9l.2.1v.1l-.3.7l-.9.7l-.3 1.1l.2.5l-.5.7l-.2.9l-.2.3l-.8.7l-1 .7l-.1.4l.6.4l.6.1v.2l-.2.8l.6.2l.7-.2v.1l-.1.4l.1.5l.4-.1l.6-.2l.4-.2l-.1.3v.7l.4.6l.4-.1l.4-.5l.2.7l.8 1.2l.8-1.2l.2-.7l.4.5l.4.1l.4-.6v-.7l-.1-.3l.4.2l.6.2l.4.1l.1-.5l-.1-.4v-.1l.7.2l.6-.2v-1l.6-.1l.6-.4l-.1-.4l-1-.7l-.8-.7l-.1-.3l-.2-.9l-.5-.7l.2-.5l-.3-1.1l-.7-.8l-.3-.7v-.1l.2-.1l1.7 1.9l1.1 1.1l.3-.4l1.1.6l1 .6l.1-.3l.8.3l.7.3l1 .7l1.7.1l2.8-1l1.1-.6l.1-.6l-.2-.3v-.2l-.1-.4l-.1-.5l-1.1-1.7l-.1-.1l-.1-.1v-.5h.1l.2.1l.2-.2l.2-.5l-.1-.2h-.3l-.1-.1l.1-.3l-.1-.2l-.4-.2l-.1.1v.3h-.6l-.2.6v.2h.4l.1.1l-.2.3l-.2.1h-.3l-1.2.4l-.7.8l-.2.2l-.3.4l-.2.4l-.1 1.1l.5.8l-.1.2l-.4-.2l-1.1-.8l-.1-.2l.2-.1v-.2l-.6-.3v-.3l.3-.4l-.9-.2l-.3-.2l.2-.3v-.2l-1-.2l-1.5-1.6l1 .9l.6-.4l-.4-.5h.1l1.6.7l1.1-.3l-.3-.4l.1-.1h1.5l1.1-.8l-.8-.2l-.1-.3h1.6l.8-.9l-.9-.2l-.3-.2l1.8-.1l.9-1.2v-.2l-1.3.2l-.8-.1l2.4-.5l.9-1.5l-1.5.4l-1.1.1l.1-.1l2.2-.6l1.1-1.7l-.3-.1l-2.2.9l-.9.2zm-29.1 1.9l-.3.2l-.2-.4v-.1l.3-.1zm9.9 5.8l-1.1.9l-1 .2v.2l.2.3l-.3.2l-.9.2l.3.4v.3l-.6.3v.2l.6.2l-.3.2l-1.1.4H20l-.1-.6l-.4-1l-.5-.6v-.2l-.1-.4l-.5-.5v-.4l-.3-1.4l-1-1.8l-.5-1.7v-.9l.1-.2l.4.4l2.4.5l-.8.1l-1.4-.2v.2l.9 1.2l1.8.1l-.3.2l-.9.2l.8.9h1.6l-.2.2l-.8.2l1.1.8h1.5l.1.1l-.3.4l1.1.3l1.6-.7h.1l-.4.5l.6.4l1-.9zM35 16l-.1-.3l.6.5l.3.5v1l.1.1l-.4.2H35l-.1-.2l.4-.6zm-2.2 1.3l.1-.9l-.2-1.2l.7.5l.5 1l-.1.6l.1.4l-.3.2l-.5.1l-.5-.2l-.2-.1zm-2-1.6l.7-.5l-.2 1.2l.1.9l.3.4l-.2.1l-.5.2l-.5-.1l-.3-.2l.1-.4l-.1-.6zM29.2 18h-.5l-.3-.1l.1-.1v-1l.3-.5l.6-.5l-.2.2l-.3 1.2l.4.6zm5.7 4.1l-.6.4l.4.3l-.7.6l-.7.3l-.1.2l.3.4l.1.1l-.8.7l-.5.3l-.1.5l.3.4v.3l-.5.7l-.5-.7v-.3l.3-.4l-.1-.5l-.5-.3l-.8-.7l.1-.1l.3-.4l-.1-.2l-.6-.3l-.7-.6l.4-.3l-.6-.4l-.6-.5l.7-.6l.1-.5l2.5.4l2.5-.4l.1.5l.7.6z"/><path fill="#428bc1" d="M27 31h10v6H27z"/><path fill="#83bf4f" d="m32 43l4-4h-8z"/><path fill="#ffce31" d="m30.3 36.5l-.6.5h1.4l.3-.4l1.1-.9l.6.9l.2.4h1l-.2-.5l.8-.8l.4-.3l.2-3l-.8.5l.2 1.6l-1.1-.9h-2.2l.2-.6l-.9-1l-.9 1l.2.7l-.7.8l-.8-.4l-.5.8l1.2.6z"/>
</symbol>

<symbol xmlns="http://www.w3.org/2000/svg" id="Сейшельські Острови" viewBox="0 0 64 64"><path fill="#ed4c5c" d="M62 32c0-5.4-1.4-10.5-4-14.9L14.7 54.4L14 56c.1.1.3.2.4.3L61 39.7c.7-2.4 1-5 1-7.7"/><path fill="#fcd856" d="M58 17.1C53.6 9.4 45.9 3.9 36.8 2.4L14 56z"/><path fill="#2872a0" d="M32 2c-8.2 0-15.6 3.3-21 8.6C5.5 16 2 23.6 2 32c0 9.5 4.4 18 11.4 23.5c.1.1.2.2.4.3c.1.1.2.1.3.2l.7-1.6l22.1-52C35.2 2.1 33.6 2 32 2"/><path fill="#fff" d="M14.4 56.3c.1 0 .1.1.2.1l40.3-4.9c2.9-3.4 5-7.4 6.2-11.8z"/><path fill="#699635" d="M32 62c9.1 0 17.3-4.1 22.8-10.5l-40.3 4.9c5 3.5 11 5.6 17.5 5.6"/>
</symbol>

<symbol xmlns="http://www.w3.org/2000/svg" id="Танзанія" viewBox="0 0 64 64"><path fill="#83bf4f" d="M17 6C6.3 12.2.9 23.9 2.2 35.3L49.8 7.9C40.5 1 27.7-.1 17 6"/><path fill="#428bc1" d="M14.2 56.1c9.3 6.9 22.2 8 32.8 1.8c10.7-6.1 16.1-17.8 14.8-29.3z"/><path fill="#3e4347" d="M58 17c-1.4-2.4-3.1-4.5-5-6.4L3 39.5c.7 2.6 1.7 5.1 3 7.5c1.4 2.4 3.1 4.5 5 6.4l50-28.9c-.6-2.6-1.6-5.1-3-7.5"/><path fill="#ffce31" d="M61.5 26.5c-.1-.7-.3-1.4-.5-2L11 53.4c.5.5 1 1 1.5 1.4c.5.5 1.1.9 1.7 1.3l47.6-27.5zm-10-17.3c-.5-.5-1.1-.9-1.7-1.3L2.2 35.3l.3 2.1c.1.7.3 1.4.5 2l50-28.8c-.5-.5-1-1-1.5-1.4"/>
</symbol>

<symbol xmlns="http://www.w3.org/2000/svg" id="Таїланд" viewBox="0 0 64 64"><path fill="#ed4c5c" d="M52.4 10C47 5 39.9 2 32 2s-15 3-20.4 8zM11.6 54c5.4 5 12.5 8 20.4 8s15-3 20.4-8z"/><path fill="#2a5f9e" d="M2 32c0 4.3.9 8.3 2.5 12h55c1.6-3.7 2.5-7.7 2.5-12s-.9-8.3-2.5-12h-55C2.9 23.7 2 27.7 2 32"/><path fill="#f9f9f9" d="M11.6 54h40.7c3-2.8 5.5-6.2 7.1-10h-55c1.8 3.8 4.2 7.2 7.2 10m40.8-44H11.6c-3 2.8-5.5 6.2-7.1 10h55c-1.7-3.8-4.1-7.2-7.1-10"/>
</symbol>

<symbol xmlns="http://www.w3.org/2000/svg" id="Україна" viewBox="0 0 64 64"><path fill="#ffe62e" d="M32 62c16.6 0 30-13.4 30-30H2c0 16.6 13.4 30 30 30"/><path fill="#428bc1" d="M32 2C15.4 2 2 15.4 2 32h60C62 15.4 48.6 2 32 2"/>
</symbol>

<symbol xmlns="http://www.w3.org/2000/svg" id="В'єтнам" viewBox="0 0 64 64"><circle cx="32" cy="32" r="30" fill="#f42f4c"/><path fill="#ffe62e" d="m32 39l9.9 7l-3.7-11.4l9.8-7.4H35.8L32 16l-3.7 11.2H16l9.8 7.4L22.1 46z"/>
</symbol>

<symbol id="viber"  viewBox="0 0 50 50">
  <path d="M 24.425781 3 C 23.0625 3.007813 21.695313 3.089844 20.316406 3.257813 C 17.679688 3.582031 15.066406 4.121094 12.558594 5.273438 C 8.570313 7.105469 5.742188 10.214844 4.921875 14.734375 C 4.574219 16.640625 4.292969 18.574219 4.132813 20.519531 C 3.824219 24.296875 4.015625 28.085938 5.085938 31.808594 C 5.929688 34.742188 7.484375 37.378906 10.207031 39.089844 C 11.359375 39.8125 12.878906 40.164063 13.671875 40.53125 C 13.894531 40.636719 13.949219 40.699219 13.960938 40.714844 C 13.972656 40.726563 14.003906 40.753906 14 40.988281 C 13.972656 43.378906 14 48.003906 14 48.003906 L 14.003906 49 L 15.789063 49 L 16.078125 48.71875 C 16.078125 48.71875 20.613281 44.355469 22.253906 42.558594 C 22.550781 42.238281 22.703125 42.058594 22.734375 42.039063 C 22.761719 42.019531 22.714844 42.007813 23.019531 42 C 25.171875 41.957031 27.320313 41.875 29.46875 41.757813 C 32.300781 41.601563 35.1875 41.332031 37.964844 40.171875 C 40.382813 39.160156 42.402344 37.507813 43.625 35.03125 C 44.875 32.492188 45.542969 29.800781 45.792969 27.015625 C 46.207031 22.378906 46.0625 17.734375 44.78125 13.15625 C 44.027344 10.472656 42.511719 8.203125 40.1875 6.601563 C 37.40625 4.6875 34.269531 3.96875 31.199219 3.511719 C 29.40625 3.246094 27.601563 3.070313 25.789063 3.015625 C 25.335938 3.003906 24.882813 2.996094 24.425781 3 Z M 25.734375 5.015625 C 27.457031 5.0625 29.179688 5.230469 30.90625 5.488281 C 33.867188 5.929688 36.660156 6.601563 39.054688 8.25 C 40.996094 9.585938 42.207031 11.390625 42.855469 13.691406 C 44.050781 17.972656 44.203125 22.359375 43.800781 26.839844 C 43.570313 29.421875 42.957031 31.855469 41.828125 34.148438 C 40.832031 36.171875 39.277344 37.457031 37.191406 38.328125 C 34.769531 39.339844 32.136719 39.609375 29.363281 39.761719 C 27.238281 39.878906 25.109375 39.957031 22.980469 40 C 22.445313 40.011719 21.921875 40.152344 21.550781 40.425781 C 21.179688 40.699219 21.011719 40.953125 20.78125 41.203125 C 19.609375 42.484375 17.273438 44.738281 16 45.972656 C 15.992188 44.480469 15.980469 42.675781 16 41.011719 C 16.007813 40.5 15.890625 39.976563 15.597656 39.5625 C 15.304688 39.148438 14.902344 38.898438 14.515625 38.71875 C 13.386719 38.195313 11.910156 37.796875 11.269531 37.394531 C 9.03125 35.988281 7.761719 33.878906 7.007813 31.253906 C 6.019531 27.820313 5.832031 24.285156 6.125 20.6875 C 6.28125 18.820313 6.550781 16.949219 6.890625 15.09375 C 7.601563 11.183594 9.835938 8.722656 13.390625 7.089844 C 15.636719 6.058594 18.035156 5.550781 20.5625 5.242188 C 22.285156 5.03125 24.007813 4.964844 25.734375 5.015625 Z M 26.15625 10 C 25.332031 10 24.53125 10.09375 23.753906 10.265625 C 23.21875 10.390625 22.878906 10.925781 23 11.464844 C 23.121094 12.003906 23.660156 12.339844 24.199219 12.21875 C 24.828125 12.074219 25.484375 12 26.15625 12 C 31.039063 12 34.976563 15.9375 34.976563 20.816406 C 34.976563 21.492188 34.902344 22.148438 34.757813 22.78125 C 34.636719 23.316406 34.972656 23.855469 35.511719 23.976563 C 36.050781 24.097656 36.585938 23.757813 36.707031 23.21875 C 36.882813 22.445313 36.976563 21.644531 36.976563 20.816406 C 36.976563 14.855469 32.121094 10 26.15625 10 Z M 16.179688 12.003906 C 16.015625 11.996094 15.847656 12.007813 15.671875 12.046875 C 13.855469 12.449219 12.050781 13.765625 12 16.117188 C 12.050781 16.445313 12.046875 16.796875 12.167969 17.09375 C 12.761719 18.546875 13.277344 20.046875 14.019531 21.421875 C 17.632813 28.101563 23.097656 32.746094 30.0625 35.695313 C 30.894531 36.046875 31.753906 36.121094 32.59375 35.769531 C 33.75 35.289063 34.730469 34.546875 35.382813 33.480469 C 36.277344 32.015625 36.289063 31 34.816406 29.917969 C 33.851563 29.207031 32.902344 28.476563 31.925781 27.78125 C 30.4375 26.726563 28.828125 26.542969 27.71875 28.394531 C 27.660156 28.488281 27.574219 28.566406 27.5 28.644531 C 26.929688 29.25 26.230469 29.398438 25.488281 29.09375 C 22.671875 27.933594 20.496094 26.0625 19.183594 23.277344 C 18.410156 21.640625 18.621094 20.820313 20.066406 19.730469 C 20.210938 19.625 20.347656 19.511719 20.480469 19.390625 C 21.113281 18.8125 21.28125 18.125 20.90625 17.347656 C 20.058594 15.574219 18.929688 13.992188 17.5 12.628906 C 17.113281 12.261719 16.671875 12.03125 16.179688 12.003906 Z M 26.140625 13 C 25.699219 13 25.261719 13.035156 24.832031 13.109375 C 24.46875 13.15625 24.160156 13.398438 24.027344 13.738281 C 23.894531 14.082031 23.960938 14.46875 24.195313 14.75 C 24.433594 15.027344 24.808594 15.15625 25.167969 15.078125 C 25.480469 15.027344 25.808594 15 26.140625 15 C 29.390625 15 32 17.609375 32 20.859375 C 32 21.191406 31.972656 21.519531 31.921875 21.832031 C 31.84375 22.191406 31.972656 22.566406 32.25 22.804688 C 32.53125 23.039063 32.917969 23.105469 33.261719 22.972656 C 33.601563 22.839844 33.84375 22.53125 33.890625 22.167969 C 33.964844 21.738281 34 21.300781 34 20.859375 C 34 16.53125 30.46875 13 26.140625 13 Z M 26 16 C 25.640625 15.996094 25.304688 16.183594 25.121094 16.496094 C 24.941406 16.808594 24.941406 17.191406 25.121094 17.503906 C 25.304688 17.816406 25.640625 18.003906 26 18 C 27.667969 18 29 19.332031 29 21 C 28.996094 21.359375 29.183594 21.695313 29.496094 21.878906 C 29.808594 22.058594 30.191406 22.058594 30.503906 21.878906 C 30.816406 21.695313 31.003906 21.359375 31 21 C 31 18.25 28.75 16 26 16 Z"></path>
</symbol>


<symbol id="telegram"  viewBox="0 0 50 50">
<path d="M 25 2 C 12.309288 2 2 12.309297 2 25 C 2 37.690703 12.309288 48 25 48 C 37.690712 48 48 37.690703 48 25 C 48 12.309297 37.690712 2 25 2 z M 25 4 C 36.609833 4 46 13.390175 46 25 C 46 36.609825 36.609833 46 25 46 C 13.390167 46 4 36.609825 4 25 C 4 13.390175 13.390167 4 25 4 z M 34.087891 14.035156 C 33.403891 14.035156 32.635328 14.193578 31.736328 14.517578 C 30.340328 15.020578 13.920734 21.992156 12.052734 22.785156 C 10.984734 23.239156 8.9960938 24.083656 8.9960938 26.097656 C 8.9960938 27.432656 9.7783594 28.3875 11.318359 28.9375 C 12.146359 29.2325 14.112906 29.828578 15.253906 30.142578 C 15.737906 30.275578 16.25225 30.34375 16.78125 30.34375 C 17.81625 30.34375 18.857828 30.085859 19.673828 29.630859 C 19.666828 29.798859 19.671406 29.968672 19.691406 30.138672 C 19.814406 31.188672 20.461875 32.17625 21.421875 32.78125 C 22.049875 33.17725 27.179312 36.614156 27.945312 37.160156 C 29.021313 37.929156 30.210813 38.335938 31.382812 38.335938 C 33.622813 38.335938 34.374328 36.023109 34.736328 34.912109 C 35.261328 33.299109 37.227219 20.182141 37.449219 17.869141 C 37.600219 16.284141 36.939641 14.978953 35.681641 14.376953 C 35.210641 14.149953 34.672891 14.035156 34.087891 14.035156 z M 34.087891 16.035156 C 34.362891 16.035156 34.608406 16.080641 34.816406 16.181641 C 35.289406 16.408641 35.530031 16.914688 35.457031 17.679688 C 35.215031 20.202687 33.253938 33.008969 32.835938 34.292969 C 32.477938 35.390969 32.100813 36.335938 31.382812 36.335938 C 30.664813 36.335938 29.880422 36.08425 29.107422 35.53125 C 28.334422 34.97925 23.201281 31.536891 22.488281 31.087891 C 21.863281 30.693891 21.201813 29.711719 22.132812 28.761719 C 22.899812 27.979719 28.717844 22.332938 29.214844 21.835938 C 29.584844 21.464938 29.411828 21.017578 29.048828 21.017578 C 28.923828 21.017578 28.774141 21.070266 28.619141 21.197266 C 28.011141 21.694266 19.534781 27.366266 18.800781 27.822266 C 18.314781 28.124266 17.56225 28.341797 16.78125 28.341797 C 16.44825 28.341797 16.111109 28.301891 15.787109 28.212891 C 14.659109 27.901891 12.750187 27.322734 11.992188 27.052734 C 11.263188 26.792734 10.998047 26.543656 10.998047 26.097656 C 10.998047 25.463656 11.892938 25.026 12.835938 24.625 C 13.831938 24.202 31.066062 16.883437 32.414062 16.398438 C 33.038062 16.172438 33.608891 16.035156 34.087891 16.035156 z"></path>
</symbol>


  </defs>
</svg>
